# Blender v2.79 (sub 0) OBJ File: ''
# www.blender.org
mtllib patineta.mtl
o Cylinder.003_Cylinder.002
v 0.923759 0.006919 -0.104130
v 0.885816 0.001180 -0.110959
v 0.886346 -0.002595 -0.110727
v 0.924289 0.003141 -0.103899
v 0.887000 -0.006326 -0.111232
v 0.924943 -0.000588 -0.104403
v 0.887756 -0.009865 -0.112455
v 0.925699 -0.004127 -0.105626
v 0.888582 -0.013080 -0.114349
v 0.926525 -0.007341 -0.107519
v 0.889449 -0.015845 -0.116840
v 0.927391 -0.010107 -0.110010
v 0.890321 -0.018052 -0.119832
v 0.928264 -0.012315 -0.113003
v 0.891167 -0.019621 -0.123213
v 0.929111 -0.013882 -0.116383
v 0.891953 -0.020487 -0.126850
v 0.929896 -0.014749 -0.120019
v 0.892649 -0.020620 -0.130602
v 0.930592 -0.014883 -0.123775
v 0.893227 -0.020013 -0.134331
v 0.931171 -0.014276 -0.127500
v 0.893668 -0.018691 -0.137887
v 0.931611 -0.012952 -0.131059
v 0.893952 -0.016703 -0.141137
v 0.931895 -0.010965 -0.134309
v 0.894069 -0.014126 -0.143956
v 0.932012 -0.008388 -0.137127
v 0.894016 -0.011059 -0.146235
v 0.931959 -0.005322 -0.139406
v 0.893793 -0.007621 -0.147886
v 0.931736 -0.001883 -0.141056
v 0.893410 -0.003944 -0.148845
v 0.931352 0.001795 -0.142016
v 0.892880 -0.000168 -0.149077
v 0.930823 0.005571 -0.142247
v 0.892224 0.003564 -0.148572
v 0.930169 0.009301 -0.141742
v 0.891470 0.007102 -0.147349
v 0.929413 0.012841 -0.140520
v 0.890644 0.010317 -0.145455
v 0.928586 0.016054 -0.138625
v 0.889777 0.013080 -0.142964
v 0.927721 0.018818 -0.136136
v 0.888904 0.015290 -0.139972
v 0.926848 0.021027 -0.133142
v 0.888057 0.016857 -0.136591
v 0.926002 0.022596 -0.129762
v 0.887273 0.017725 -0.132956
v 0.925216 0.023462 -0.126125
v 0.886576 0.017857 -0.129200
v 0.924521 0.023595 -0.122371
v 0.885998 0.017251 -0.125474
v 0.923941 0.022988 -0.118644
v 0.885558 0.015928 -0.121916
v 0.923501 0.021665 -0.115088
v 0.885273 0.013939 -0.118667
v 0.923217 0.019678 -0.111836
v 0.885157 0.011363 -0.115848
v 0.923100 0.017102 -0.109018
v 0.885210 0.008298 -0.113569
v 0.923153 0.014034 -0.106739
v 0.885433 0.004858 -0.111918
v 0.923376 0.010596 -0.105089
vn -0.1821 0.0347 0.9827
vn -0.1516 -0.1585 0.9756
vn -0.1152 -0.3463 0.9310
vn -0.0744 -0.5203 0.8508
vn -0.0308 -0.6743 0.7378
vn 0.0141 -0.8027 0.5962
vn 0.0583 -0.9000 0.4320
vn 0.1004 -0.9627 0.2511
vn 0.1385 -0.9885 0.0608
vn 0.1714 -0.9763 -0.1324
vn 0.1977 -0.9265 -0.3201
vn 0.2164 -0.8412 -0.4955
vn 0.2268 -0.7235 -0.6521
vn 0.2284 -0.5782 -0.7833
vn 0.2213 -0.4103 -0.8847
vn 0.2057 -0.2269 -0.9519
vn 0.1821 -0.0347 -0.9827
vn 0.1516 0.1587 -0.9756
vn 0.1152 0.3462 -0.9311
vn 0.0744 0.5205 -0.8506
vn 0.0308 0.6744 -0.7377
vn -0.0140 0.8025 -0.5965
vn -0.0583 0.9000 -0.4320
vn -0.1004 0.9627 -0.2512
vn -0.1386 0.9885 -0.0606
vn -0.1714 0.9763 0.1323
vn -0.1977 0.9265 0.3202
vn -0.2164 0.8412 0.4955
vn -0.2268 0.7236 0.6519
vn -0.2282 0.5779 0.7836
vn -0.9735 -0.1472 -0.1752
vn -0.2213 0.4103 0.8847
vn -0.2056 0.2268 0.9520
vn 0.9735 0.1472 0.1752
usemtl None.003
s 1
f 1//1 2//1 3//1 4//1
f 4//2 3//2 5//2 6//2
f 6//3 5//3 7//3 8//3
f 8//4 7//4 9//4 10//4
f 10//5 9//5 11//5 12//5
f 12//6 11//6 13//6 14//6
f 14//7 13//7 15//7 16//7
f 16//8 15//8 17//8 18//8
f 18//9 17//9 19//9 20//9
f 20//10 19//10 21//10 22//10
f 22//11 21//11 23//11 24//11
f 24//12 23//12 25//12 26//12
f 26//13 25//13 27//13 28//13
f 28//14 27//14 29//14 30//14
f 30//15 29//15 31//15 32//15
f 32//16 31//16 33//16 34//16
f 34//17 33//17 35//17 36//17
f 36//18 35//18 37//18 38//18
f 38//19 37//19 39//19 40//19
f 40//20 39//20 41//20 42//20
f 42//21 41//21 43//21 44//21
f 44//22 43//22 45//22 46//22
f 46//23 45//23 47//23 48//23
f 48//24 47//24 49//24 50//24
f 50//25 49//25 51//25 52//25
f 52//26 51//26 53//26 54//26
f 54//27 53//27 55//27 56//27
f 56//28 55//28 57//28 58//28
f 58//29 57//29 59//29 60//29
f 60//30 59//30 61//30 62//30
f 3//31 2//31 63//31 61//31 59//31 57//31 55//31 53//31 51//31 49//31 47//31 45//31 43//31 41//31 39//31 37//31 35//31 33//31 31//31 29//31 27//31 25//31 23//31 21//31 19//31 17//31 15//31 13//31 11//31 9//31 7//31 5//31
f 62//32 61//32 63//32 64//32
f 64//33 63//33 2//33 1//33
f 1//34 4//34 6//34 8//34 10//34 12//34 14//34 16//34 18//34 20//34 22//34 24//34 26//34 28//34 30//34 32//34 34//34 36//34 38//34 40//34 42//34 44//34 46//34 48//34 50//34 52//34 54//34 56//34 58//34 60//34 62//34 64//34
o Cylinder.002_Cylinder.002
v 0.784430 -0.011579 -0.132347
v 0.746487 -0.017318 -0.139177
v 0.747015 -0.021094 -0.138945
v 0.784959 -0.015357 -0.132116
v 0.747671 -0.024824 -0.139451
v 0.785615 -0.019086 -0.132621
v 0.748427 -0.028364 -0.140673
v 0.786370 -0.022626 -0.133843
v 0.749254 -0.031578 -0.142566
v 0.787197 -0.025840 -0.135737
v 0.750120 -0.034342 -0.145056
v 0.788063 -0.028604 -0.138227
v 0.750993 -0.036550 -0.148050
v 0.788935 -0.030813 -0.141221
v 0.751838 -0.038118 -0.151431
v 0.789781 -0.032381 -0.144600
v 0.752623 -0.038985 -0.155067
v 0.790567 -0.033247 -0.148237
v 0.753319 -0.039118 -0.158821
v 0.791262 -0.033380 -0.151992
v 0.753898 -0.038511 -0.162548
v 0.791843 -0.032773 -0.155719
v 0.754338 -0.037189 -0.166105
v 0.792281 -0.031450 -0.159276
v 0.754623 -0.035201 -0.169355
v 0.792567 -0.029463 -0.162526
v 0.754741 -0.032624 -0.172174
v 0.792684 -0.026886 -0.165345
v 0.754686 -0.029558 -0.174453
v 0.792630 -0.023821 -0.167624
v 0.754464 -0.026120 -0.176103
v 0.792407 -0.020382 -0.169274
v 0.754080 -0.022441 -0.177063
v 0.792024 -0.016703 -0.170233
v 0.753550 -0.018665 -0.177294
v 0.791494 -0.012927 -0.170465
v 0.752895 -0.014935 -0.176789
v 0.790839 -0.009198 -0.169961
v 0.752141 -0.011396 -0.175566
v 0.790084 -0.005656 -0.168738
v 0.751314 -0.008182 -0.173674
v 0.789257 -0.002443 -0.166843
v 0.750447 -0.005417 -0.171182
v 0.788391 0.000320 -0.164354
v 0.749574 -0.003209 -0.168190
v 0.787519 0.002529 -0.161360
v 0.748730 -0.001641 -0.164809
v 0.786674 0.004097 -0.157980
v 0.747944 -0.000774 -0.161172
v 0.785888 0.004963 -0.154343
v 0.747247 -0.000642 -0.157418
v 0.785192 0.005096 -0.150588
v 0.746669 -0.001248 -0.153691
v 0.784612 0.004489 -0.146863
v 0.746229 -0.002570 -0.150132
v 0.784172 0.003167 -0.143305
v 0.745945 -0.004558 -0.146884
v 0.783888 0.001179 -0.140054
v 0.745828 -0.007135 -0.144066
v 0.783770 -0.001397 -0.137236
v 0.745880 -0.010201 -0.141786
v 0.783824 -0.004463 -0.134957
v 0.746103 -0.013640 -0.140136
v 0.784046 -0.007901 -0.133306
vn -0.1821 0.0347 0.9827
vn -0.1516 -0.1589 0.9756
vn -0.1153 -0.3460 0.9311
vn -0.0744 -0.5203 0.8507
vn -0.0308 -0.6743 0.7378
vn 0.0141 -0.8027 0.5962
vn 0.0583 -0.8998 0.4324
vn 0.1004 -0.9627 0.2511
vn 0.1386 -0.9885 0.0607
vn 0.1714 -0.9763 -0.1323
vn 0.1977 -0.9265 -0.3201
vn 0.2164 -0.8413 -0.4954
vn 0.2268 -0.7235 -0.6520
vn 0.2283 -0.5779 -0.7835
vn 0.2213 -0.4102 -0.8847
vn 0.2057 -0.2268 -0.9520
vn 0.1821 -0.0347 -0.9827
vn 0.1516 0.1586 -0.9756
vn 0.1152 0.3462 -0.9311
vn 0.0744 0.5204 -0.8507
vn 0.0308 0.6744 -0.7377
vn -0.0140 0.8026 -0.5963
vn -0.0583 0.9000 -0.4320
vn -0.1004 0.9627 -0.2511
vn -0.1386 0.9885 -0.0606
vn -0.1714 0.9763 0.1323
vn -0.1977 0.9266 0.3198
vn -0.2164 0.8411 0.4957
vn -0.2268 0.7235 0.6520
vn -0.2284 0.5783 0.7832
vn -0.9735 -0.1472 -0.1752
vn -0.2213 0.4103 0.8847
vn -0.2057 0.2267 0.9520
vn 0.9735 0.1472 0.1752
usemtl None.003
s 1
f 65//35 66//35 67//35 68//35
f 68//36 67//36 69//36 70//36
f 70//37 69//37 71//37 72//37
f 72//38 71//38 73//38 74//38
f 74//39 73//39 75//39 76//39
f 76//40 75//40 77//40 78//40
f 78//41 77//41 79//41 80//41
f 80//42 79//42 81//42 82//42
f 82//43 81//43 83//43 84//43
f 84//44 83//44 85//44 86//44
f 86//45 85//45 87//45 88//45
f 88//46 87//46 89//46 90//46
f 90//47 89//47 91//47 92//47
f 92//48 91//48 93//48 94//48
f 94//49 93//49 95//49 96//49
f 96//50 95//50 97//50 98//50
f 98//51 97//51 99//51 100//51
f 100//52 99//52 101//52 102//52
f 102//53 101//53 103//53 104//53
f 104//54 103//54 105//54 106//54
f 106//55 105//55 107//55 108//55
f 108//56 107//56 109//56 110//56
f 110//57 109//57 111//57 112//57
f 112//58 111//58 113//58 114//58
f 114//59 113//59 115//59 116//59
f 116//60 115//60 117//60 118//60
f 118//61 117//61 119//61 120//61
f 120//62 119//62 121//62 122//62
f 122//63 121//63 123//63 124//63
f 124//64 123//64 125//64 126//64
f 67//65 66//65 127//65 125//65 123//65 121//65 119//65 117//65 115//65 113//65 111//65 109//65 107//65 105//65 103//65 101//65 99//65 97//65 95//65 93//65 91//65 89//65 87//65 85//65 83//65 81//65 79//65 77//65 75//65 73//65 71//65 69//65
f 126//66 125//66 127//66 128//66
f 128//67 127//67 66//67 65//67
f 65//68 68//68 70//68 72//68 74//68 76//68 78//68 80//68 82//68 84//68 86//68 88//68 90//68 92//68 94//68 96//68 98//68 100//68 102//68 104//68 106//68 108//68 110//68 112//68 114//68 116//68 118//68 120//68 122//68 124//68 126//68 128//68
o Cylinder.001_Cylinder.002
v 0.917033 -0.091808 -0.734501
v 0.879090 -0.097548 -0.741330
v 0.879619 -0.101324 -0.741098
v 0.917563 -0.095585 -0.734269
v 0.880275 -0.105053 -0.741603
v 0.918218 -0.099316 -0.734774
v 0.881031 -0.108593 -0.742826
v 0.918973 -0.102854 -0.735997
v 0.881857 -0.111807 -0.744720
v 0.919800 -0.106069 -0.737890
v 0.882723 -0.114573 -0.747210
v 0.920665 -0.108834 -0.740381
v 0.883596 -0.116779 -0.750203
v 0.921539 -0.111042 -0.743375
v 0.884440 -0.118347 -0.753582
v 0.922385 -0.112610 -0.746754
v 0.885227 -0.119215 -0.757221
v 0.923170 -0.113477 -0.750391
v 0.885922 -0.119347 -0.760974
v 0.923866 -0.113610 -0.754145
v 0.886501 -0.118740 -0.764701
v 0.924445 -0.113003 -0.757872
v 0.886942 -0.117418 -0.768258
v 0.924885 -0.111680 -0.761429
v 0.887226 -0.115430 -0.771509
v 0.925170 -0.109691 -0.764680
v 0.887344 -0.112854 -0.774327
v 0.925286 -0.107115 -0.767498
v 0.887290 -0.109787 -0.776605
v 0.925233 -0.104050 -0.769778
v 0.887067 -0.106348 -0.778257
v 0.925010 -0.100611 -0.771427
v 0.886684 -0.102671 -0.779216
v 0.924627 -0.096933 -0.772387
v 0.886154 -0.098895 -0.779448
v 0.924097 -0.093157 -0.772619
v 0.885499 -0.095163 -0.778942
v 0.923443 -0.089426 -0.772114
v 0.884744 -0.091625 -0.777719
v 0.922687 -0.085887 -0.770891
v 0.883918 -0.088411 -0.775827
v 0.921860 -0.082673 -0.768997
v 0.883051 -0.085647 -0.773335
v 0.920994 -0.079908 -0.766507
v 0.882178 -0.083438 -0.770343
v 0.920122 -0.077700 -0.763513
v 0.881332 -0.081871 -0.766962
v 0.919276 -0.076131 -0.760133
v 0.880547 -0.081003 -0.763326
v 0.918490 -0.075265 -0.756496
v 0.879851 -0.080871 -0.759572
v 0.917795 -0.075132 -0.752742
v 0.879272 -0.081477 -0.755844
v 0.917215 -0.075739 -0.749014
v 0.878832 -0.082799 -0.752287
v 0.916775 -0.077062 -0.745457
v 0.878548 -0.084788 -0.749036
v 0.916492 -0.079050 -0.742208
v 0.878431 -0.087365 -0.746218
v 0.916374 -0.081626 -0.739390
v 0.878483 -0.090430 -0.743940
v 0.916428 -0.084693 -0.737111
v 0.878706 -0.093870 -0.742290
v 0.916650 -0.088131 -0.735461
vn -0.1821 0.0348 0.9827
vn -0.1516 -0.1587 0.9756
vn -0.1152 -0.3463 0.9310
vn -0.0744 -0.5203 0.8507
vn -0.0309 -0.6742 0.7379
vn 0.0142 -0.8026 0.5964
vn 0.0583 -0.8999 0.4322
vn 0.1004 -0.9627 0.2512
vn 0.1386 -0.9885 0.0606
vn 0.1714 -0.9763 -0.1324
vn 0.1977 -0.9266 -0.3200
vn 0.2164 -0.8412 -0.4956
vn 0.2268 -0.7235 -0.6520
vn 0.2284 -0.5782 -0.7833
vn 0.2213 -0.4103 -0.8847
vn 0.2057 -0.2270 -0.9519
vn 0.1821 -0.0348 -0.9827
vn 0.1516 0.1587 -0.9756
vn 0.1152 0.3464 -0.9310
vn 0.0744 0.5202 -0.8508
vn 0.0308 0.6744 -0.7377
vn -0.0141 0.8026 -0.5963
vn -0.0584 0.9000 -0.4320
vn -0.1004 0.9627 -0.2512
vn -0.1386 0.9885 -0.0606
vn -0.1714 0.9763 0.1322
vn -0.1977 0.9265 0.3200
vn -0.2164 0.8411 0.4957
vn -0.2268 0.7235 0.6520
vn -0.2284 0.5782 0.7833
vn -0.9735 -0.1472 -0.1752
vn -0.2213 0.4102 0.8848
vn -0.2057 0.2270 0.9519
vn 0.9735 0.1472 0.1752
usemtl None.003
s 1
f 129//69 130//69 131//69 132//69
f 132//70 131//70 133//70 134//70
f 134//71 133//71 135//71 136//71
f 136//72 135//72 137//72 138//72
f 138//73 137//73 139//73 140//73
f 140//74 139//74 141//74 142//74
f 142//75 141//75 143//75 144//75
f 144//76 143//76 145//76 146//76
f 146//77 145//77 147//77 148//77
f 148//78 147//78 149//78 150//78
f 150//79 149//79 151//79 152//79
f 152//80 151//80 153//80 154//80
f 154//81 153//81 155//81 156//81
f 156//82 155//82 157//82 158//82
f 158//83 157//83 159//83 160//83
f 160//84 159//84 161//84 162//84
f 162//85 161//85 163//85 164//85
f 164//86 163//86 165//86 166//86
f 166//87 165//87 167//87 168//87
f 168//88 167//88 169//88 170//88
f 170//89 169//89 171//89 172//89
f 172//90 171//90 173//90 174//90
f 174//91 173//91 175//91 176//91
f 176//92 175//92 177//92 178//92
f 178//93 177//93 179//93 180//93
f 180//94 179//94 181//94 182//94
f 182//95 181//95 183//95 184//95
f 184//96 183//96 185//96 186//96
f 186//97 185//97 187//97 188//97
f 188//98 187//98 189//98 190//98
f 131//99 130//99 191//99 189//99 187//99 185//99 183//99 181//99 179//99 177//99 175//99 173//99 171//99 169//99 167//99 165//99 163//99 161//99 159//99 157//99 155//99 153//99 151//99 149//99 147//99 145//99 143//99 141//99 139//99 137//99 135//99 133//99
f 190//100 189//100 191//100 192//100
f 192//101 191//101 130//101 129//101
f 129//102 132//102 134//102 136//102 138//102 140//102 142//102 144//102 146//102 148//102 150//102 152//102 154//102 156//102 158//102 160//102 162//102 164//102 166//102 168//102 170//102 172//102 174//102 176//102 178//102 180//102 182//102 184//102 186//102 188//102 190//102 192//102
o Cylinder.003
v 1.056363 -0.073311 -0.706284
v 1.018419 -0.079049 -0.713113
v 1.018949 -0.082826 -0.712881
v 1.056892 -0.077088 -0.706051
v 1.019602 -0.086555 -0.713386
v 1.057547 -0.080818 -0.706556
v 1.020359 -0.090096 -0.714608
v 1.058303 -0.084356 -0.707780
v 1.021185 -0.093310 -0.716503
v 1.059129 -0.087570 -0.709672
v 1.022052 -0.096073 -0.718992
v 1.059995 -0.090335 -0.712164
v 1.022924 -0.098281 -0.721986
v 1.060868 -0.092544 -0.715157
v 1.023769 -0.099849 -0.725364
v 1.061713 -0.094112 -0.718536
v 1.024556 -0.100715 -0.729002
v 1.062499 -0.094978 -0.722173
v 1.025251 -0.100848 -0.732757
v 1.063194 -0.095110 -0.725927
v 1.025830 -0.100242 -0.736484
v 1.063774 -0.094504 -0.729654
v 1.026271 -0.098920 -0.740041
v 1.064214 -0.093181 -0.733212
v 1.026554 -0.096932 -0.743292
v 1.064498 -0.091194 -0.736462
v 1.026673 -0.094356 -0.746109
v 1.064616 -0.088617 -0.739281
v 1.026619 -0.091289 -0.748388
v 1.064562 -0.085552 -0.741558
v 1.026396 -0.087850 -0.750038
v 1.064340 -0.082114 -0.743210
v 1.026012 -0.084173 -0.750998
v 1.063955 -0.078435 -0.744169
v 1.025483 -0.080396 -0.751231
v 1.063426 -0.074658 -0.744401
v 1.024827 -0.076666 -0.750724
v 1.062772 -0.070928 -0.743895
v 1.024073 -0.073125 -0.749501
v 1.062016 -0.067388 -0.742674
v 1.023246 -0.069912 -0.747609
v 1.061190 -0.064174 -0.740779
v 1.022380 -0.067148 -0.745117
v 1.060323 -0.061410 -0.738288
v 1.021508 -0.064939 -0.742126
v 1.059450 -0.059202 -0.735296
v 1.020661 -0.063372 -0.738745
v 1.058605 -0.057634 -0.731916
v 1.019876 -0.062505 -0.735107
v 1.057820 -0.056768 -0.728279
v 1.019179 -0.062372 -0.731353
v 1.057125 -0.056634 -0.724525
v 1.018600 -0.062979 -0.727626
v 1.056543 -0.057241 -0.720797
v 1.018160 -0.064302 -0.724069
v 1.056105 -0.058564 -0.717239
v 1.017876 -0.066289 -0.720819
v 1.055819 -0.060552 -0.713991
v 1.017759 -0.068867 -0.718000
v 1.055703 -0.063128 -0.711172
v 1.017812 -0.071932 -0.715722
v 1.055757 -0.066194 -0.708893
v 1.018035 -0.075371 -0.714072
v 1.055979 -0.069632 -0.707243
vn -0.1822 0.0349 0.9826
vn -0.1516 -0.1587 0.9756
vn -0.1152 -0.3463 0.9310
vn -0.0744 -0.5203 0.8507
vn -0.0308 -0.6744 0.7377
vn 0.0141 -0.8027 0.5963
vn 0.0583 -0.8999 0.4322
vn 0.1004 -0.9628 0.2509
vn 0.1386 -0.9885 0.0605
vn 0.1714 -0.9763 -0.1321
vn 0.1977 -0.9266 -0.3200
vn 0.2164 -0.8412 -0.4955
vn 0.2268 -0.7235 -0.6520
vn 0.2284 -0.5780 -0.7834
vn 0.2213 -0.4104 -0.8846
vn 0.2056 -0.2269 -0.9520
vn 0.1822 -0.0350 -0.9826
vn 0.1515 0.1591 -0.9756
vn 0.1152 0.3460 -0.9311
vn 0.0744 0.5204 -0.8507
vn 0.0308 0.6745 -0.7376
vn -0.0140 0.8025 -0.5965
vn -0.0583 0.9000 -0.4319
vn -0.1004 0.9628 -0.2510
vn -0.1385 0.9885 -0.0608
vn -0.1714 0.9763 0.1323
vn -0.1977 0.9265 0.3202
vn -0.2164 0.8412 0.4956
vn -0.2267 0.7235 0.6520
vn -0.2284 0.5782 0.7833
vn -0.9735 -0.1472 -0.1752
vn -0.2213 0.4102 0.8847
vn -0.2056 0.2267 0.9520
vn 0.9735 0.1472 0.1752
usemtl None.003
s 1
f 193//103 194//103 195//103 196//103
f 196//104 195//104 197//104 198//104
f 198//105 197//105 199//105 200//105
f 200//106 199//106 201//106 202//106
f 202//107 201//107 203//107 204//107
f 204//108 203//108 205//108 206//108
f 206//109 205//109 207//109 208//109
f 208//110 207//110 209//110 210//110
f 210//111 209//111 211//111 212//111
f 212//112 211//112 213//112 214//112
f 214//113 213//113 215//113 216//113
f 216//114 215//114 217//114 218//114
f 218//115 217//115 219//115 220//115
f 220//116 219//116 221//116 222//116
f 222//117 221//117 223//117 224//117
f 224//118 223//118 225//118 226//118
f 226//119 225//119 227//119 228//119
f 228//120 227//120 229//120 230//120
f 230//121 229//121 231//121 232//121
f 232//122 231//122 233//122 234//122
f 234//123 233//123 235//123 236//123
f 236//124 235//124 237//124 238//124
f 238//125 237//125 239//125 240//125
f 240//126 239//126 241//126 242//126
f 242//127 241//127 243//127 244//127
f 244//128 243//128 245//128 246//128
f 246//129 245//129 247//129 248//129
f 248//130 247//130 249//130 250//130
f 250//131 249//131 251//131 252//131
f 252//132 251//132 253//132 254//132
f 195//133 194//133 255//133 253//133 251//133 249//133 247//133 245//133 243//133 241//133 239//133 237//133 235//133 233//133 231//133 229//133 227//133 225//133 223//133 221//133 219//133 217//133 215//133 213//133 211//133 209//133 207//133 205//133 203//133 201//133 199//133 197//133
f 254//134 253//134 255//134 256//134
f 256//135 255//135 194//135 193//135
f 193//136 196//136 198//136 200//136 202//136 204//136 206//136 208//136 210//136 212//136 214//136 216//136 218//136 220//136 222//136 224//136 226//136 228//136 230//136 232//136 234//136 236//136 238//136 240//136 242//136 244//136 246//136 248//136 250//136 252//136 254//136 256//136
o Cube.006
v 1.091421 -0.059773 -0.768964
v 0.872649 -0.088819 -0.813271
v 0.885221 -0.096425 -0.870363
v 1.103993 -0.067379 -0.826056
v 1.102426 -0.051902 -0.828464
v 0.883654 -0.080947 -0.872770
v 0.908743 -0.029333 -0.948807
v 1.127515 -0.000287 -0.904499
v 0.941001 0.031236 -0.085902
v 0.939433 0.046714 -0.088308
v 0.720661 0.017669 -0.132615
v 0.722229 0.002191 -0.130208
v 0.871082 -0.073341 -0.815678
v 1.089854 -0.044296 -0.771372
v 1.114943 0.007320 -0.847407
v 0.896171 -0.021726 -0.891715
vn 0.0996 -0.9832 0.1529
vn 0.2127 -0.8396 -0.4998
vn -0.2133 0.1290 0.9684
vn -0.9719 -0.1290 -0.1968
vn 0.2133 -0.1290 -0.9684
vn 0.9719 0.1290 0.1968
vn -0.0996 0.9832 -0.1529
vn 0.9645 -0.1304 0.2298
vn -0.2127 0.8396 0.4998
vn -0.9645 0.1304 -0.2298
usemtl Material.003
s 1
f 257//137 258//137 259//137 260//137
f 261//138 262//138 263//138 264//138
f 265//139 266//139 267//139 268//139
f 258//140 269//140 262//140 259//140
f 259//141 262//141 261//141 260//141
f 270//142 257//142 260//142 261//142
f 266//142 265//142 257//142 270//142
f 268//140 267//140 269//140 258//140
f 266//143 270//143 269//143 267//143
f 265//137 268//137 258//137 257//137
f 271//143 264//143 263//143 272//143
f 270//144 261//144 264//144 271//144
f 269//145 270//145 271//145 272//145
f 262//146 269//146 272//146 263//146
