# Blender v2.79 (sub 0) OBJ File: ''
# www.blender.org
mtllib patineta.mtl
o Cube.006
v 0.171421 -0.059773 -0.248964
v -0.047351 -0.088819 -0.293271
v -0.034779 -0.096425 -0.350363
v 0.183993 -0.067379 -0.306056
v 0.182426 -0.051902 -0.308464
v -0.036346 -0.080947 -0.352770
v -0.011257 -0.029333 -0.428807
v 0.207515 -0.000287 -0.384499
v 0.021001 0.031236 0.434098
v 0.019433 0.046714 0.431692
v -0.199339 0.017669 0.387385
v -0.197771 0.002191 0.389792
v -0.048918 -0.073341 -0.295678
v 0.169854 -0.044296 -0.251372
v 0.194943 0.007320 -0.327407
v -0.023829 -0.021726 -0.371715
vn 0.0996 -0.9832 0.1529
vn 0.2127 -0.8396 -0.4998
vn -0.2133 0.1290 0.9684
vn -0.9719 -0.1290 -0.1968
vn 0.2133 -0.1290 -0.9684
vn 0.9719 0.1290 0.1968
vn -0.9719 -0.1291 -0.1968
vn -0.0996 0.9832 -0.1529
vn 0.9645 -0.1303 0.2298
vn -0.2127 0.8396 0.4998
vn -0.9645 0.1303 -0.2298
usemtl Material.003
s 1
f 1//1 2//1 3//1 4//1
f 5//2 6//2 7//2 8//2
f 9//3 10//3 11//3 12//3
f 2//4 13//4 6//4 3//4
f 3//5 6//5 5//5 4//5
f 14//6 1//6 4//6 5//6
f 10//6 9//6 1//6 14//6
f 12//7 11//7 13//4 2//4
f 10//8 14//8 13//8 11//8
f 9//1 12//1 2//1 1//1
f 15//8 8//8 7//8 16//8
f 14//9 5//9 8//9 15//9
f 13//10 14//10 15//10 16//10
f 6//11 13//11 16//11 7//11
o Cylinder.003
v 0.136363 -0.073311 -0.186284
v 0.098419 -0.079049 -0.193113
v 0.098949 -0.082826 -0.192881
v 0.136892 -0.077088 -0.186051
v 0.099602 -0.086555 -0.193386
v 0.137547 -0.080818 -0.186556
v 0.100359 -0.090096 -0.194608
v 0.138303 -0.084356 -0.187780
v 0.101185 -0.093310 -0.196503
v 0.139129 -0.087570 -0.189672
v 0.102052 -0.096073 -0.198992
v 0.139995 -0.090335 -0.192164
v 0.102924 -0.098281 -0.201986
v 0.140868 -0.092544 -0.195157
v 0.103769 -0.099849 -0.205364
v 0.141713 -0.094112 -0.198536
v 0.104556 -0.100715 -0.209002
v 0.142499 -0.094978 -0.202173
v 0.105251 -0.100848 -0.212757
v 0.143194 -0.095110 -0.205927
v 0.105830 -0.100242 -0.216484
v 0.143774 -0.094504 -0.209654
v 0.106271 -0.098920 -0.220041
v 0.144214 -0.093181 -0.213212
v 0.106554 -0.096932 -0.223292
v 0.144498 -0.091194 -0.216462
v 0.106673 -0.094356 -0.226109
v 0.144616 -0.088617 -0.219281
v 0.106619 -0.091289 -0.228388
v 0.144562 -0.085552 -0.221558
v 0.106396 -0.087850 -0.230038
v 0.144340 -0.082114 -0.223210
v 0.106012 -0.084173 -0.230998
v 0.143955 -0.078435 -0.224169
v 0.105483 -0.080396 -0.231231
v 0.143426 -0.074658 -0.224401
v 0.104827 -0.076666 -0.230724
v 0.142772 -0.070928 -0.223895
v 0.104073 -0.073125 -0.229501
v 0.142016 -0.067388 -0.222674
v 0.103246 -0.069912 -0.227609
v 0.141190 -0.064174 -0.220779
v 0.102380 -0.067148 -0.225117
v 0.140323 -0.061410 -0.218288
v 0.101508 -0.064939 -0.222126
v 0.139450 -0.059202 -0.215296
v 0.100661 -0.063372 -0.218745
v 0.138605 -0.057634 -0.211916
v 0.099876 -0.062505 -0.215107
v 0.137820 -0.056768 -0.208279
v 0.099179 -0.062372 -0.211353
v 0.137125 -0.056634 -0.204525
v 0.098600 -0.062979 -0.207626
v 0.136543 -0.057241 -0.200797
v 0.098160 -0.064302 -0.204069
v 0.136105 -0.058564 -0.197239
v 0.097876 -0.066289 -0.200819
v 0.135819 -0.060552 -0.193991
v 0.097759 -0.068867 -0.198000
v 0.135703 -0.063128 -0.191172
v 0.097812 -0.071932 -0.195722
v 0.135757 -0.066194 -0.188893
v 0.098035 -0.075371 -0.194072
v 0.135979 -0.069632 -0.187243
vn -0.1821 0.0349 0.9827
vn -0.1516 -0.1588 0.9756
vn -0.1152 -0.3462 0.9310
vn -0.0744 -0.5204 0.8507
vn -0.0308 -0.6744 0.7377
vn 0.0141 -0.8027 0.5962
vn 0.0583 -0.8998 0.4323
vn 0.1004 -0.9628 0.2509
vn 0.1386 -0.9885 0.0606
vn 0.1714 -0.9763 -0.1322
vn 0.1977 -0.9266 -0.3199
vn 0.2164 -0.8412 -0.4955
vn 0.2268 -0.7235 -0.6520
vn 0.2284 -0.5780 -0.7834
vn 0.2213 -0.4104 -0.8846
vn 0.2056 -0.2269 -0.9520
vn 0.1822 -0.0349 -0.9826
vn 0.1515 0.1590 -0.9756
vn 0.1152 0.3462 -0.9311
vn 0.0744 0.5203 -0.8507
vn 0.0308 0.6745 -0.7376
vn -0.0140 0.8025 -0.5965
vn -0.0583 0.9000 -0.4320
vn -0.1004 0.9627 -0.2511
vn -0.1385 0.9885 -0.0607
vn -0.1714 0.9763 0.1322
vn -0.1977 0.9265 0.3202
vn -0.2164 0.8412 0.4956
vn -0.2268 0.7235 0.6520
vn -0.2284 0.5782 0.7833
vn -0.9735 -0.1472 -0.1752
vn -0.2213 0.4102 0.8847
vn -0.2056 0.2269 0.9520
vn 0.9735 0.1472 0.1752
usemtl None.003
s 1
f 17//12 18//12 19//12 20//12
f 20//13 19//13 21//13 22//13
f 22//14 21//14 23//14 24//14
f 24//15 23//15 25//15 26//15
f 26//16 25//16 27//16 28//16
f 28//17 27//17 29//17 30//17
f 30//18 29//18 31//18 32//18
f 32//19 31//19 33//19 34//19
f 34//20 33//20 35//20 36//20
f 36//21 35//21 37//21 38//21
f 38//22 37//22 39//22 40//22
f 40//23 39//23 41//23 42//23
f 42//24 41//24 43//24 44//24
f 44//25 43//25 45//25 46//25
f 46//26 45//26 47//26 48//26
f 48//27 47//27 49//27 50//27
f 50//28 49//28 51//28 52//28
f 52//29 51//29 53//29 54//29
f 54//30 53//30 55//30 56//30
f 56//31 55//31 57//31 58//31
f 58//32 57//32 59//32 60//32
f 60//33 59//33 61//33 62//33
f 62//34 61//34 63//34 64//34
f 64//35 63//35 65//35 66//35
f 66//36 65//36 67//36 68//36
f 68//37 67//37 69//37 70//37
f 70//38 69//38 71//38 72//38
f 72//39 71//39 73//39 74//39
f 74//40 73//40 75//40 76//40
f 76//41 75//41 77//41 78//41
f 19//42 18//42 79//42 77//42 75//42 73//42 71//42 69//42 67//42 65//42 63//42 61//42 59//42 57//42 55//42 53//42 51//42 49//42 47//42 45//42 43//42 41//42 39//42 37//42 35//42 33//42 31//42 29//42 27//42 25//42 23//42 21//42
f 78//43 77//43 79//43 80//43
f 80//44 79//44 18//44 17//44
f 17//45 20//45 22//45 24//45 26//45 28//45 30//45 32//45 34//45 36//45 38//45 40//45 42//45 44//45 46//45 48//45 50//45 52//45 54//45 56//45 58//45 60//45 62//45 64//45 66//45 68//45 70//45 72//45 74//45 76//45 78//45 80//45
o Cylinder.001_Cylinder.002
v -0.002967 -0.091808 -0.214501
v -0.040910 -0.097548 -0.221330
v -0.040381 -0.101324 -0.221098
v -0.002437 -0.095585 -0.214269
v -0.039725 -0.105053 -0.221603
v -0.001782 -0.099316 -0.214774
v -0.038969 -0.108593 -0.222826
v -0.001027 -0.102854 -0.215997
v -0.038143 -0.111807 -0.224720
v -0.000200 -0.106069 -0.217890
v -0.037277 -0.114573 -0.227210
v 0.000665 -0.108834 -0.220381
v -0.036404 -0.116779 -0.230203
v 0.001539 -0.111042 -0.223375
v -0.035560 -0.118347 -0.233582
v 0.002385 -0.112610 -0.226754
v -0.034773 -0.119215 -0.237221
v 0.003170 -0.113477 -0.230391
v -0.034078 -0.119347 -0.240974
v 0.003866 -0.113610 -0.234145
v -0.033499 -0.118740 -0.244701
v 0.004445 -0.113003 -0.237872
v -0.033058 -0.117418 -0.248258
v 0.004885 -0.111680 -0.241429
v -0.032774 -0.115430 -0.251509
v 0.005170 -0.109691 -0.244680
v -0.032656 -0.112854 -0.254327
v 0.005286 -0.107115 -0.247498
v -0.032710 -0.109787 -0.256605
v 0.005233 -0.104050 -0.249778
v -0.032933 -0.106348 -0.258257
v 0.005010 -0.100611 -0.251427
v -0.033316 -0.102671 -0.259216
v 0.004627 -0.096933 -0.252387
v -0.033846 -0.098895 -0.259448
v 0.004097 -0.093157 -0.252619
v -0.034501 -0.095163 -0.258942
v 0.003443 -0.089426 -0.252114
v -0.035256 -0.091625 -0.257719
v 0.002687 -0.085887 -0.250891
v -0.036082 -0.088411 -0.255827
v 0.001860 -0.082673 -0.248997
v -0.036949 -0.085647 -0.253335
v 0.000994 -0.079908 -0.246507
v -0.037822 -0.083438 -0.250343
v 0.000122 -0.077700 -0.243513
v -0.038668 -0.081871 -0.246962
v -0.000724 -0.076131 -0.240133
v -0.039453 -0.081003 -0.243326
v -0.001510 -0.075265 -0.236496
v -0.040149 -0.080871 -0.239572
v -0.002205 -0.075132 -0.232742
v -0.040728 -0.081477 -0.235844
v -0.002785 -0.075739 -0.229014
v -0.041168 -0.082799 -0.232287
v -0.003225 -0.077062 -0.225457
v -0.041452 -0.084788 -0.229036
v -0.003508 -0.079050 -0.222208
v -0.041569 -0.087365 -0.226218
v -0.003626 -0.081626 -0.219390
v -0.041517 -0.090430 -0.223940
v -0.003572 -0.084693 -0.217111
v -0.041294 -0.093870 -0.222290
v -0.003350 -0.088131 -0.215461
vn -0.1821 0.0348 0.9827
vn -0.1516 -0.1587 0.9756
vn -0.1152 -0.3463 0.9310
vn -0.0744 -0.5202 0.8508
vn -0.0308 -0.6743 0.7378
vn 0.0142 -0.8024 0.5966
vn 0.0583 -0.8999 0.4321
vn 0.1004 -0.9627 0.2512
vn 0.1384 -0.9885 0.0609
vn 0.1714 -0.9763 -0.1323
vn 0.1977 -0.9266 -0.3200
vn 0.2164 -0.8412 -0.4956
vn 0.2268 -0.7235 -0.6520
vn 0.2284 -0.5782 -0.7833
vn 0.2213 -0.4104 -0.8847
vn 0.2057 -0.2269 -0.9519
vn 0.1821 -0.0348 -0.9827
vn 0.1516 0.1588 -0.9756
vn 0.1152 0.3463 -0.9310
vn 0.0744 0.5203 -0.8507
vn 0.0308 0.6744 -0.7377
vn -0.0140 0.8026 -0.5964
vn -0.0584 0.9000 -0.4320
vn -0.1004 0.9627 -0.2511
vn -0.1386 0.9885 -0.0606
vn -0.1715 0.9763 0.1322
vn -0.1977 0.9265 0.3201
vn -0.2164 0.8411 0.4957
vn -0.2267 0.7235 0.6520
vn -0.2284 0.5782 0.7833
vn -0.9735 -0.1472 -0.1752
vn -0.2213 0.4102 0.8847
vn -0.2057 0.2270 0.9519
vn 0.9735 0.1472 0.1752
usemtl None.003
s 1
f 81//46 82//46 83//46 84//46
f 84//47 83//47 85//47 86//47
f 86//48 85//48 87//48 88//48
f 88//49 87//49 89//49 90//49
f 90//50 89//50 91//50 92//50
f 92//51 91//51 93//51 94//51
f 94//52 93//52 95//52 96//52
f 96//53 95//53 97//53 98//53
f 98//54 97//54 99//54 100//54
f 100//55 99//55 101//55 102//55
f 102//56 101//56 103//56 104//56
f 104//57 103//57 105//57 106//57
f 106//58 105//58 107//58 108//58
f 108//59 107//59 109//59 110//59
f 110//60 109//60 111//60 112//60
f 112//61 111//61 113//61 114//61
f 114//62 113//62 115//62 116//62
f 116//63 115//63 117//63 118//63
f 118//64 117//64 119//64 120//64
f 120//65 119//65 121//65 122//65
f 122//66 121//66 123//66 124//66
f 124//67 123//67 125//67 126//67
f 126//68 125//68 127//68 128//68
f 128//69 127//69 129//69 130//69
f 130//70 129//70 131//70 132//70
f 132//71 131//71 133//71 134//71
f 134//72 133//72 135//72 136//72
f 136//73 135//73 137//73 138//73
f 138//74 137//74 139//74 140//74
f 140//75 139//75 141//75 142//75
f 83//76 82//76 143//76 141//76 139//76 137//76 135//76 133//76 131//76 129//76 127//76 125//76 123//76 121//76 119//76 117//76 115//76 113//76 111//76 109//76 107//76 105//76 103//76 101//76 99//76 97//76 95//76 93//76 91//76 89//76 87//76 85//76
f 142//77 141//77 143//77 144//77
f 144//78 143//78 82//78 81//78
f 81//79 84//79 86//79 88//79 90//79 92//79 94//79 96//79 98//79 100//79 102//79 104//79 106//79 108//79 110//79 112//79 114//79 116//79 118//79 120//79 122//79 124//79 126//79 128//79 130//79 132//79 134//79 136//79 138//79 140//79 142//79 144//79
o Cylinder.002_Cylinder.002
v -0.135570 -0.011579 0.387653
v -0.173513 -0.017318 0.380823
v -0.172985 -0.021094 0.381055
v -0.135041 -0.015357 0.387884
v -0.172329 -0.024824 0.380549
v -0.134385 -0.019086 0.387379
v -0.171573 -0.028364 0.379327
v -0.133630 -0.022626 0.386157
v -0.170746 -0.031578 0.377434
v -0.132803 -0.025840 0.384263
v -0.169880 -0.034342 0.374944
v -0.131937 -0.028604 0.381773
v -0.169007 -0.036550 0.371950
v -0.131065 -0.030813 0.378779
v -0.168162 -0.038118 0.368569
v -0.130219 -0.032381 0.375400
v -0.167377 -0.038985 0.364933
v -0.129433 -0.033247 0.371763
v -0.166681 -0.039118 0.361179
v -0.128738 -0.033380 0.368008
v -0.166102 -0.038511 0.357452
v -0.128157 -0.032773 0.364281
v -0.165662 -0.037189 0.353895
v -0.127719 -0.031450 0.360724
v -0.165377 -0.035201 0.350645
v -0.127433 -0.029463 0.357474
v -0.165259 -0.032624 0.347826
v -0.127316 -0.026886 0.354655
v -0.165314 -0.029558 0.345547
v -0.127370 -0.023821 0.352376
v -0.165536 -0.026120 0.343897
v -0.127593 -0.020382 0.350726
v -0.165920 -0.022441 0.342937
v -0.127976 -0.016703 0.349767
v -0.166450 -0.018665 0.342706
v -0.128506 -0.012927 0.349535
v -0.167105 -0.014935 0.343211
v -0.129161 -0.009198 0.350039
v -0.167859 -0.011396 0.344434
v -0.129916 -0.005656 0.351262
v -0.168686 -0.008182 0.346326
v -0.130743 -0.002443 0.353157
v -0.169553 -0.005417 0.348818
v -0.131609 0.000320 0.355646
v -0.170426 -0.003209 0.351810
v -0.132481 0.002529 0.358640
v -0.171270 -0.001641 0.355191
v -0.133326 0.004097 0.362020
v -0.172056 -0.000774 0.358828
v -0.134112 0.004963 0.365657
v -0.172753 -0.000642 0.362582
v -0.134808 0.005096 0.369412
v -0.173331 -0.001248 0.366309
v -0.135388 0.004489 0.373137
v -0.173771 -0.002570 0.369868
v -0.135828 0.003167 0.376695
v -0.174055 -0.004558 0.373116
v -0.136112 0.001179 0.379946
v -0.174172 -0.007135 0.375934
v -0.136230 -0.001397 0.382764
v -0.174120 -0.010201 0.378214
v -0.136176 -0.004463 0.385043
v -0.173897 -0.013640 0.379864
v -0.135954 -0.007901 0.386694
vn -0.1821 0.0347 0.9827
vn -0.1516 -0.1589 0.9756
vn -0.1153 -0.3460 0.9311
vn -0.0744 -0.5204 0.8507
vn -0.0308 -0.6745 0.7376
vn 0.0141 -0.8027 0.5962
vn 0.0583 -0.8999 0.4322
vn 0.1004 -0.9628 0.2510
vn 0.1385 -0.9885 0.0607
vn 0.1714 -0.9763 -0.1323
vn 0.1977 -0.9266 -0.3200
vn 0.2164 -0.8412 -0.4955
vn 0.2269 -0.7233 -0.6522
vn 0.2283 -0.5779 -0.7835
vn 0.2213 -0.4103 -0.8847
vn 0.2056 -0.2268 -0.9520
vn 0.1821 -0.0348 -0.9827
vn 0.1516 0.1586 -0.9756
vn 0.1152 0.3462 -0.9311
vn 0.0744 0.5204 -0.8507
vn 0.0308 0.6744 -0.7377
vn -0.0140 0.8026 -0.5964
vn -0.0583 0.9000 -0.4320
vn -0.1004 0.9627 -0.2511
vn -0.1386 0.9885 -0.0606
vn -0.1714 0.9763 0.1322
vn -0.1977 0.9266 0.3199
vn -0.2164 0.8411 0.4957
vn -0.2268 0.7236 0.6520
vn -0.2284 0.5783 0.7832
vn -0.9735 -0.1472 -0.1752
vn -0.2213 0.4103 0.8847
vn -0.2056 0.2267 0.9520
vn 0.9735 0.1472 0.1752
usemtl None.003
s 1
f 145//80 146//80 147//80 148//80
f 148//81 147//81 149//81 150//81
f 150//82 149//82 151//82 152//82
f 152//83 151//83 153//83 154//83
f 154//84 153//84 155//84 156//84
f 156//85 155//85 157//85 158//85
f 158//86 157//86 159//86 160//86
f 160//87 159//87 161//87 162//87
f 162//88 161//88 163//88 164//88
f 164//89 163//89 165//89 166//89
f 166//90 165//90 167//90 168//90
f 168//91 167//91 169//91 170//91
f 170//92 169//92 171//92 172//92
f 172//93 171//93 173//93 174//93
f 174//94 173//94 175//94 176//94
f 176//95 175//95 177//95 178//95
f 178//96 177//96 179//96 180//96
f 180//97 179//97 181//97 182//97
f 182//98 181//98 183//98 184//98
f 184//99 183//99 185//99 186//99
f 186//100 185//100 187//100 188//100
f 188//101 187//101 189//101 190//101
f 190//102 189//102 191//102 192//102
f 192//103 191//103 193//103 194//103
f 194//104 193//104 195//104 196//104
f 196//105 195//105 197//105 198//105
f 198//106 197//106 199//106 200//106
f 200//107 199//107 201//107 202//107
f 202//108 201//108 203//108 204//108
f 204//109 203//109 205//109 206//109
f 147//110 146//110 207//110 205//110 203//110 201//110 199//110 197//110 195//110 193//110 191//110 189//110 187//110 185//110 183//110 181//110 179//110 177//110 175//110 173//110 171//110 169//110 167//110 165//110 163//110 161//110 159//110 157//110 155//110 153//110 151//110 149//110
f 206//111 205//111 207//111 208//111
f 208//112 207//112 146//112 145//112
f 145//113 148//113 150//113 152//113 154//113 156//113 158//113 160//113 162//113 164//113 166//113 168//113 170//113 172//113 174//113 176//113 178//113 180//113 182//113 184//113 186//113 188//113 190//113 192//113 194//113 196//113 198//113 200//113 202//113 204//113 206//113 208//113
o Cylinder.003_Cylinder.002
v 0.003759 0.006919 0.415870
v -0.034184 0.001180 0.409041
v -0.033654 -0.002595 0.409273
v 0.004289 0.003141 0.416101
v -0.033000 -0.006326 0.408768
v 0.004943 -0.000588 0.415597
v -0.032244 -0.009865 0.407545
v 0.005699 -0.004127 0.414374
v -0.031418 -0.013080 0.405651
v 0.006525 -0.007341 0.412481
v -0.030551 -0.015845 0.403160
v 0.007391 -0.010107 0.409990
v -0.029679 -0.018052 0.400168
v 0.008264 -0.012315 0.406997
v -0.028833 -0.019621 0.396787
v 0.009111 -0.013882 0.403617
v -0.028047 -0.020487 0.393150
v 0.009896 -0.014749 0.399981
v -0.027351 -0.020620 0.389398
v 0.010592 -0.014883 0.396225
v -0.026773 -0.020013 0.385669
v 0.011171 -0.014276 0.392500
v -0.026332 -0.018691 0.382113
v 0.011611 -0.012952 0.388941
v -0.026048 -0.016703 0.378863
v 0.011895 -0.010965 0.385691
v -0.025931 -0.014126 0.376044
v 0.012012 -0.008388 0.382873
v -0.025984 -0.011059 0.373765
v 0.011959 -0.005322 0.380594
v -0.026207 -0.007621 0.372114
v 0.011736 -0.001883 0.378944
v -0.026590 -0.003944 0.371155
v 0.011352 0.001795 0.377984
v -0.027120 -0.000168 0.370923
v 0.010823 0.005571 0.377753
v -0.027776 0.003564 0.371428
v 0.010169 0.009301 0.378258
v -0.028530 0.007102 0.372651
v 0.009413 0.012841 0.379480
v -0.029356 0.010317 0.374545
v 0.008586 0.016054 0.381375
v -0.030223 0.013080 0.377036
v 0.007721 0.018818 0.383864
v -0.031096 0.015290 0.380028
v 0.006848 0.021027 0.386858
v -0.031943 0.016857 0.383409
v 0.006002 0.022596 0.390238
v -0.032727 0.017725 0.387044
v 0.005216 0.023462 0.393875
v -0.033424 0.017857 0.390800
v 0.004521 0.023595 0.397629
v -0.034002 0.017251 0.394526
v 0.003941 0.022988 0.401356
v -0.034442 0.015928 0.398084
v 0.003501 0.021665 0.404912
v -0.034727 0.013939 0.401333
v 0.003217 0.019678 0.408164
v -0.034843 0.011363 0.404152
v 0.003100 0.017102 0.410982
v -0.034790 0.008298 0.406431
v 0.003153 0.014034 0.413261
v -0.034567 0.004858 0.408082
v 0.003376 0.010596 0.414911
vn -0.1821 0.0347 0.9827
vn -0.1516 -0.1586 0.9756
vn -0.1152 -0.3463 0.9310
vn -0.0744 -0.5203 0.8507
vn -0.0308 -0.6743 0.7378
vn 0.0140 -0.8027 0.5963
vn 0.0583 -0.9000 0.4320
vn 0.1004 -0.9628 0.2510
vn 0.1385 -0.9885 0.0608
vn 0.1714 -0.9763 -0.1324
vn 0.1977 -0.9265 -0.3201
vn 0.2164 -0.8413 -0.4954
vn 0.2268 -0.7234 -0.6521
vn 0.2284 -0.5783 -0.7832
vn 0.2213 -0.4103 -0.8847
vn 0.2057 -0.2270 -0.9519
vn 0.1821 -0.0347 -0.9827
vn 0.1516 0.1587 -0.9756
vn 0.1152 0.3462 -0.9311
vn 0.0744 0.5204 -0.8506
vn 0.0308 0.6745 -0.7377
vn -0.0140 0.8025 -0.5965
vn -0.0583 0.9000 -0.4320
vn -0.1004 0.9627 -0.2511
vn -0.1386 0.9885 -0.0606
vn -0.1714 0.9763 0.1322
vn -0.1977 0.9265 0.3202
vn -0.2164 0.8412 0.4955
vn -0.2268 0.7235 0.6520
vn -0.2282 0.5778 0.7836
vn -0.9735 -0.1472 -0.1752
vn -0.2213 0.4102 0.8847
vn -0.2057 0.2269 0.9520
vn 0.9735 0.1472 0.1752
usemtl None.003
s 1
f 209//114 210//114 211//114 212//114
f 212//115 211//115 213//115 214//115
f 214//116 213//116 215//116 216//116
f 216//117 215//117 217//117 218//117
f 218//118 217//118 219//118 220//118
f 220//119 219//119 221//119 222//119
f 222//120 221//120 223//120 224//120
f 224//121 223//121 225//121 226//121
f 226//122 225//122 227//122 228//122
f 228//123 227//123 229//123 230//123
f 230//124 229//124 231//124 232//124
f 232//125 231//125 233//125 234//125
f 234//126 233//126 235//126 236//126
f 236//127 235//127 237//127 238//127
f 238//128 237//128 239//128 240//128
f 240//129 239//129 241//129 242//129
f 242//130 241//130 243//130 244//130
f 244//131 243//131 245//131 246//131
f 246//132 245//132 247//132 248//132
f 248//133 247//133 249//133 250//133
f 250//134 249//134 251//134 252//134
f 252//135 251//135 253//135 254//135
f 254//136 253//136 255//136 256//136
f 256//137 255//137 257//137 258//137
f 258//138 257//138 259//138 260//138
f 260//139 259//139 261//139 262//139
f 262//140 261//140 263//140 264//140
f 264//141 263//141 265//141 266//141
f 266//142 265//142 267//142 268//142
f 268//143 267//143 269//143 270//143
f 211//144 210//144 271//144 269//144 267//144 265//144 263//144 261//144 259//144 257//144 255//144 253//144 251//144 249//144 247//144 245//144 243//144 241//144 239//144 237//144 235//144 233//144 231//144 229//144 227//144 225//144 223//144 221//144 219//144 217//144 215//144 213//144
f 270//145 269//145 271//145 272//145
f 272//146 271//146 210//146 209//146
f 209//147 212//147 214//147 216//147 218//147 220//147 222//147 224//147 226//147 228//147 230//147 232//147 234//147 236//147 238//147 240//147 242//147 244//147 246//147 248//147 250//147 252//147 254//147 256//147 258//147 260//147 262//147 264//147 266//147 268//147 270//147 272//147
