# Blender v2.79 (sub 0) OBJ File: ''
# www.blender.org
mtllib pio.mtl
o Grid
v -1.090788 -0.043866 1.019694
v -0.846976 -0.043866 1.019694
v -0.603165 -0.043866 1.019694
v -0.359354 -0.043866 1.019694
v -0.115542 -0.043866 1.019694
v 0.128269 -0.043866 1.019694
v 0.372080 -0.043866 1.019694
v 0.615892 -0.043866 1.019694
v 0.859703 -0.043866 1.019694
v 1.103514 -0.043866 1.019694
v -1.090788 -0.043866 0.775883
v -0.846976 -0.043866 0.775883
v -0.603165 -0.043866 0.775883
v -0.359354 -0.043866 0.775883
v -0.115542 -0.043866 0.775883
v 0.128269 -0.043866 0.775883
v 0.372080 -0.043866 0.775883
v 0.615892 -0.043866 0.775883
v 0.859703 -0.043866 0.775883
v 1.103514 -0.043866 0.775883
v -1.090788 -0.043866 0.532071
v -0.846976 -0.043866 0.532071
v -0.603165 -0.043866 0.532071
v -0.359354 -0.043866 0.532071
v -0.115542 -0.043866 0.532071
v 0.128269 -0.043866 0.532071
v 0.372080 -0.043866 0.532071
v 0.615892 -0.043866 0.532071
v 0.859703 -0.043866 0.532071
v 1.103514 -0.043866 0.532071
v -1.090788 -0.043866 0.288260
v -0.846976 -0.043866 0.288260
v -0.603165 -0.043866 0.288260
v -0.359354 -0.043866 0.288260
v -0.115542 -0.043866 0.288260
v 0.128269 -0.043866 0.288260
v 0.372080 -0.043866 0.288260
v 0.615892 -0.043866 0.288260
v 0.859703 -0.043866 0.288260
v 1.103514 -0.043866 0.288260
v -1.090788 -0.043866 0.044449
v -0.846976 -0.043866 0.044449
v -0.603165 -0.043866 0.044449
v -0.359354 -0.043866 0.044449
v -0.115542 -0.043866 0.044449
v 0.128269 -0.043866 0.044449
v 0.372080 -0.043866 0.044449
v 0.615892 -0.043866 0.044449
v 0.859703 -0.043866 0.044449
v 1.103514 -0.043866 0.044449
v -1.090788 -0.043866 -0.199363
v -0.846976 -0.043866 -0.199363
v -0.603165 -0.043866 -0.199363
v -0.359354 -0.043866 -0.199363
v -0.115542 -0.043866 -0.199363
v 0.128269 -0.043866 -0.199363
v 0.372080 -0.043866 -0.199363
v 0.615892 -0.043866 -0.199363
v 0.859703 -0.043866 -0.199363
v 1.103514 -0.043866 -0.199363
v -1.090788 -0.043866 -0.443174
v -0.846976 -0.043866 -0.443174
v -0.603165 -0.043866 -0.443174
v -0.359354 -0.043866 -0.443174
v -0.115542 -0.043866 -0.443174
v 0.128269 -0.043866 -0.443174
v 0.372080 -0.043866 -0.443174
v 0.615892 -0.043866 -0.443174
v 0.859703 -0.043866 -0.443174
v 1.103514 -0.043866 -0.443174
v -1.090788 -0.043866 -0.686985
v -0.846976 -0.043866 -0.686985
v -0.603165 -0.043866 -0.686985
v -0.359354 -0.043866 -0.686985
v -0.115542 -0.043866 -0.686985
v 0.128269 -0.043866 -0.686985
v 0.372080 -0.043866 -0.686985
v 0.615892 -0.043866 -0.686985
v 0.859703 -0.043866 -0.686985
v 1.103514 -0.043866 -0.686985
v -1.090788 -0.043866 -0.930797
v -0.846976 -0.043866 -0.930797
v -0.603165 -0.043866 -0.930797
v -0.359354 -0.043866 -0.930797
v -0.115542 -0.043866 -0.930797
v 0.128269 -0.043866 -0.930797
v 0.372080 -0.043866 -0.930797
v 0.615892 -0.043866 -0.930797
v 0.859703 -0.043866 -0.930797
v 1.103514 -0.043866 -0.930797
v -1.090788 -0.043866 -1.174608
v -0.846976 -0.043866 -1.174608
v -0.603165 -0.043866 -1.174608
v -0.359354 -0.043866 -1.174608
v -0.115542 -0.043866 -1.174608
v 0.128269 -0.043866 -1.174608
v 0.372080 -0.043866 -1.174608
v 0.615892 -0.043866 -1.174608
v 0.859703 -0.043866 -1.174608
v 1.103514 -0.043866 -1.174608
vn 0.0000 1.0000 0.0000
usemtl None
s off
f 1//1 2//1 12//1 11//1
f 2//1 3//1 13//1 12//1
f 3//1 4//1 14//1 13//1
f 4//1 5//1 15//1 14//1
f 5//1 6//1 16//1 15//1
f 6//1 7//1 17//1 16//1
f 7//1 8//1 18//1 17//1
f 8//1 9//1 19//1 18//1
f 9//1 10//1 20//1 19//1
f 11//1 12//1 22//1 21//1
f 12//1 13//1 23//1 22//1
f 13//1 14//1 24//1 23//1
f 14//1 15//1 25//1 24//1
f 15//1 16//1 26//1 25//1
f 16//1 17//1 27//1 26//1
f 17//1 18//1 28//1 27//1
f 18//1 19//1 29//1 28//1
f 19//1 20//1 30//1 29//1
f 21//1 22//1 32//1 31//1
f 22//1 23//1 33//1 32//1
f 23//1 24//1 34//1 33//1
f 24//1 25//1 35//1 34//1
f 25//1 26//1 36//1 35//1
f 26//1 27//1 37//1 36//1
f 27//1 28//1 38//1 37//1
f 28//1 29//1 39//1 38//1
f 29//1 30//1 40//1 39//1
f 31//1 32//1 42//1 41//1
f 32//1 33//1 43//1 42//1
f 33//1 34//1 44//1 43//1
f 34//1 35//1 45//1 44//1
f 35//1 36//1 46//1 45//1
f 36//1 37//1 47//1 46//1
f 37//1 38//1 48//1 47//1
f 38//1 39//1 49//1 48//1
f 39//1 40//1 50//1 49//1
f 41//1 42//1 52//1 51//1
f 42//1 43//1 53//1 52//1
f 43//1 44//1 54//1 53//1
f 44//1 45//1 55//1 54//1
f 45//1 46//1 56//1 55//1
f 46//1 47//1 57//1 56//1
f 47//1 48//1 58//1 57//1
f 48//1 49//1 59//1 58//1
f 49//1 50//1 60//1 59//1
f 51//1 52//1 62//1 61//1
f 52//1 53//1 63//1 62//1
f 53//1 54//1 64//1 63//1
f 54//1 55//1 65//1 64//1
f 55//1 56//1 66//1 65//1
f 56//1 57//1 67//1 66//1
f 57//1 58//1 68//1 67//1
f 58//1 59//1 69//1 68//1
f 59//1 60//1 70//1 69//1
f 61//1 62//1 72//1 71//1
f 62//1 63//1 73//1 72//1
f 63//1 64//1 74//1 73//1
f 64//1 65//1 75//1 74//1
f 65//1 66//1 76//1 75//1
f 66//1 67//1 77//1 76//1
f 67//1 68//1 78//1 77//1
f 68//1 69//1 79//1 78//1
f 69//1 70//1 80//1 79//1
f 71//1 72//1 82//1 81//1
f 72//1 73//1 83//1 82//1
f 73//1 74//1 84//1 83//1
f 74//1 75//1 85//1 84//1
f 75//1 76//1 86//1 85//1
f 76//1 77//1 87//1 86//1
f 77//1 78//1 88//1 87//1
f 78//1 79//1 89//1 88//1
f 79//1 80//1 90//1 89//1
f 81//1 82//1 92//1 91//1
f 82//1 83//1 93//1 92//1
f 83//1 84//1 94//1 93//1
f 84//1 85//1 95//1 94//1
f 85//1 86//1 96//1 95//1
f 86//1 87//1 97//1 96//1
f 87//1 88//1 98//1 97//1
f 88//1 89//1 99//1 98//1
f 89//1 90//1 100//1 99//1
o Cube.008
v 0.120494 0.094677 -0.020393
v -0.083427 0.094677 -0.020393
v -0.083427 0.043697 -0.020393
v 0.120494 0.043697 -0.020393
v -0.083427 0.094677 -0.224315
v -0.083427 0.043697 -0.224315
v 0.120494 0.043697 -0.224315
v 0.120494 0.094677 -0.224315
v 0.222455 0.043697 0.081568
v -0.185388 0.043697 0.081568
v -0.185388 -0.007284 0.081568
v 0.222455 -0.007284 0.081568
v -0.185388 0.043697 -0.326275
v -0.185388 -0.007284 -0.326275
v 0.222455 -0.007284 -0.326275
v 0.222455 0.043697 -0.326275
v 0.324416 -0.007284 0.183529
v -0.287349 -0.007284 0.183529
v -0.287349 -0.058264 0.183529
v 0.324416 -0.058264 0.183529
v -0.287349 -0.007284 -0.428236
v -0.287349 -0.058264 -0.428236
v 0.324416 -0.058264 -0.428236
v 0.324416 -0.007284 -0.428236
v -0.057937 0.094677 -0.198824
v 0.095004 0.094677 -0.198824
v 0.018534 0.196638 -0.122354
v 0.095004 0.094677 -0.045883
v -0.057937 0.094677 -0.045883
vn 0.0000 -0.0000 1.0000
vn -1.0000 0.0000 0.0000
vn 0.0000 -1.0000 -0.0000
vn 0.0000 -0.6000 0.8000
vn -0.8000 0.6000 0.0000
vn -0.8000 -0.6000 0.0000
vn 0.0000 0.6000 0.8000
usemtl None.002
s 1
f 101//2 102//2 103//2 104//2
f 102//3 105//3 106//3 103//3
f 105//2 106//2 107//2 108//2
f 107//3 104//3 101//3 108//3
f 106//4 107//4 104//4 103//4
f 105//4 108//4 101//4 102//4
f 109//2 110//2 111//2 112//2
f 110//3 113//3 114//3 111//3
f 113//2 114//2 115//2 116//2
f 115//3 112//3 109//3 116//3
f 114//4 115//4 112//4 111//4
f 113//4 116//4 109//4 110//4
f 117//2 118//2 119//2 120//2
f 118//3 121//3 122//3 119//3
f 121//2 122//2 123//2 124//2
f 123//3 120//3 117//3 124//3
f 122//4 123//4 120//4 119//4
f 121//4 124//4 117//4 118//4
f 125//5 126//5 127//5
f 125//4 126//4 128//4
f 125//4 128//4 129//4
f 125//6 129//6 127//6
f 126//7 128//7 127//7
f 128//8 127//8 129//8
