# Blender v2.79 (sub 0) OBJ File: ''
# www.blender.org
mtllib pio.mtl
o Cube.008
v 0.084811 0.094677 -0.029731
v -0.119110 0.094677 -0.029731
v -0.119110 0.043697 -0.029731
v 0.084811 0.043697 -0.029731
v -0.119110 0.094677 -0.233653
v -0.119110 0.043697 -0.233653
v 0.084811 0.043697 -0.233653
v 0.084811 0.094677 -0.233653
v 0.186772 0.043697 0.072230
v -0.221071 0.043697 0.072230
v -0.221071 -0.007284 0.072230
v 0.186772 -0.007284 0.072230
v -0.221071 0.043697 -0.335613
v -0.221071 -0.007284 -0.335613
v 0.186772 -0.007284 -0.335613
v 0.186772 0.043697 -0.335613
v 0.288733 -0.007284 0.174191
v -0.323032 -0.007284 0.174191
v -0.323032 -0.058264 0.174191
v 0.288733 -0.058264 0.174191
v -0.323032 -0.007284 -0.437574
v -0.323032 -0.058264 -0.437574
v 0.288733 -0.058264 -0.437574
v 0.288733 -0.007284 -0.437574
v -0.093620 0.094677 -0.208162
v 0.059321 0.094677 -0.208162
v -0.017149 0.196638 -0.131692
v 0.059321 0.094677 -0.055221
v -0.093620 0.094677 -0.055221
vn 0.0000 -0.0000 1.0000
vn -1.0000 0.0000 0.0000
vn 0.0000 -1.0000 -0.0000
vn 0.0000 -0.6000 0.8000
vn -0.8000 0.6000 0.0000
vn -0.8000 -0.6000 0.0000
vn 0.0000 0.6000 0.8000
usemtl None
s 1
f 1//1 2//1 3//1 4//1
f 2//2 5//2 6//2 3//2
f 5//1 6//1 7//1 8//1
f 7//2 4//2 1//2 8//2
f 6//3 7//3 4//3 3//3
f 5//3 8//3 1//3 2//3
f 9//1 10//1 11//1 12//1
f 10//2 13//2 14//2 11//2
f 13//1 14//1 15//1 16//1
f 15//2 12//2 9//2 16//2
f 14//3 15//3 12//3 11//3
f 13//3 16//3 9//3 10//3
f 17//1 18//1 19//1 20//1
f 18//2 21//2 22//2 19//2
f 21//1 22//1 23//1 24//1
f 23//2 20//2 17//2 24//2
f 22//3 23//3 20//3 19//3
f 21//3 24//3 17//3 18//3
f 25//4 26//4 27//4
f 25//3 26//3 28//3
f 25//3 28//3 29//3
f 25//5 29//5 27//5
f 26//6 28//6 27//6
f 28//7 27//7 29//7
o Cube_Cube.009
v 0.069471 0.055449 -0.084458
v 0.069471 0.055449 -0.068554
v 0.069471 0.039545 -0.068554
v 0.069471 0.039545 -0.084458
v 0.053568 0.055449 -0.068554
v 0.053568 0.039545 -0.068554
v 0.053568 0.055449 -0.084458
v 0.053568 0.039545 -0.084458
vn 1.0000 0.0000 0.0000
vn 0.0000 -0.0000 1.0000
vn -1.0000 0.0000 0.0000
vn 0.0000 0.0000 -1.0000
vn 0.0000 1.0000 0.0000
vn 0.0000 -1.0000 0.0000
usemtl None
s 1
f 30//8 31//8 32//8 33//8
f 31//9 34//9 35//9 32//9
f 34//10 36//10 37//10 35//10
f 36//11 30//11 33//11 37//11
f 31//12 30//12 36//12 34//12
f 35//13 37//13 33//13 32//13
o Plane_Plane.003
v -0.578310 -0.061260 0.448832
v 0.599005 -0.061260 0.448832
v 0.599005 -0.061260 -0.681269
v -0.578310 -0.061260 -0.681269
vn 0.0000 1.0000 0.0000
usemtl None
s off
f 38//14 39//14 40//14 41//14
