# Blender v2.79 (sub 0) OBJ File: ''
# www.blender.org
mtllib piramide.mtl
o Cube.002
v 0.120494 -0.275312 -0.020393
v -0.083427 -0.275312 -0.020393
v -0.083427 -0.326292 -0.020393
v 0.120494 -0.326292 -0.020393
v -0.083427 -0.275312 -0.224315
v -0.083427 -0.326292 -0.224315
v 0.120494 -0.326292 -0.224315
v 0.120494 -0.275312 -0.224315
v 0.222455 -0.326292 0.081568
v -0.185388 -0.326292 0.081568
v -0.185388 -0.377273 0.081568
v 0.222455 -0.377273 0.081568
v -0.185388 -0.326292 -0.326275
v -0.185388 -0.377273 -0.326275
v 0.222455 -0.377273 -0.326275
v 0.222455 -0.326292 -0.326275
v 0.324416 -0.377273 0.183529
v -0.287349 -0.377273 0.183529
v -0.287349 -0.428253 0.183529
v 0.324416 -0.428253 0.183529
v -0.287349 -0.377273 -0.428236
v -0.287349 -0.428253 -0.428236
v 0.324416 -0.428253 -0.428236
v 0.324416 -0.377273 -0.428236
v -0.057937 -0.275312 -0.198824
v 0.095004 -0.275312 -0.198824
v 0.018534 -0.173351 -0.122354
v 0.095004 -0.275312 -0.045883
v -0.057937 -0.275312 -0.045883
vn 0.0000 -0.0000 1.0000
vn -1.0000 0.0000 0.0000
vn 0.0000 -1.0000 0.0000
vn 0.0000 -0.6000 0.8000
vn -0.8000 0.6000 0.0000
vn -0.8000 -0.6000 0.0000
vn 0.0000 0.6000 0.8000
usemtl None.004
s 1
f 1//1 2//1 3//1 4//1
f 2//2 5//2 6//2 3//2
f 5//1 6//1 7//1 8//1
f 7//2 4//2 1//2 8//2
f 6//3 7//3 4//3 3//3
f 5//3 8//3 1//3 2//3
f 9//1 10//1 11//1 12//1
f 10//2 13//2 14//2 11//2
f 13//1 14//1 15//1 16//1
f 15//2 12//2 9//2 16//2
f 14//3 15//3 12//3 11//3
f 13//3 16//3 9//3 10//3
f 17//1 18//1 19//1 20//1
f 18//2 21//2 22//2 19//2
f 21//1 22//1 23//1 24//1
f 23//2 20//2 17//2 24//2
f 22//3 23//3 20//3 19//3
f 21//3 24//3 17//3 18//3
f 25//4 26//4 27//4
f 25//3 26//3 28//3
f 25//3 28//3 29//3
f 25//5 29//5 27//5
f 26//6 28//6 27//6
f 28//7 27//7 29//7
o Grid
v -1.090788 -0.413856 1.019694
v -0.846976 -0.413856 1.019694
v -0.603165 -0.413856 1.019694
v -0.359354 -0.413856 1.019694
v -0.115542 -0.413856 1.019694
v 0.128269 -0.413856 1.019694
v 0.372080 -0.413856 1.019694
v 0.615892 -0.413856 1.019694
v 0.859703 -0.413856 1.019694
v 1.103514 -0.413856 1.019694
v -1.090788 -0.413856 0.775883
v -0.846976 -0.413856 0.775883
v -0.603165 -0.413856 0.775883
v -0.359354 -0.413856 0.775883
v -0.115542 -0.413856 0.775883
v 0.128269 -0.413856 0.775883
v 0.372080 -0.413856 0.775883
v 0.615892 -0.413856 0.775883
v 0.859703 -0.413856 0.775883
v 1.103514 -0.413856 0.775883
v -1.090788 -0.413856 0.532071
v -0.846976 -0.413856 0.532071
v -0.603165 -0.413856 0.532071
v -0.359354 -0.413856 0.532071
v -0.115542 -0.413856 0.532071
v 0.128269 -0.413856 0.532071
v 0.372080 -0.413856 0.532071
v 0.615892 -0.413856 0.532071
v 0.859703 -0.413856 0.532071
v 1.103514 -0.413856 0.532071
v -1.090788 -0.413856 0.288260
v -0.846976 -0.413856 0.288260
v -0.603165 -0.413856 0.288260
v -0.359354 -0.413856 0.288260
v -0.115542 -0.413856 0.288260
v 0.128269 -0.413856 0.288260
v 0.372080 -0.413856 0.288260
v 0.615892 -0.413856 0.288260
v 0.859703 -0.413856 0.288260
v 1.103514 -0.413856 0.288260
v -1.090788 -0.413856 0.044449
v -0.846976 -0.413856 0.044449
v -0.603165 -0.413856 0.044449
v -0.359354 -0.413856 0.044449
v -0.115542 -0.413856 0.044449
v 0.128269 -0.413856 0.044449
v 0.372080 -0.413856 0.044449
v 0.615892 -0.413856 0.044449
v 0.859703 -0.413856 0.044449
v 1.103514 -0.413856 0.044449
v -1.090788 -0.413856 -0.199363
v -0.846976 -0.413856 -0.199363
v -0.603165 -0.413856 -0.199363
v -0.359354 -0.413856 -0.199363
v -0.115542 -0.413856 -0.199363
v 0.128269 -0.413856 -0.199363
v 0.372080 -0.413856 -0.199363
v 0.615892 -0.413856 -0.199363
v 0.859703 -0.413856 -0.199363
v 1.103514 -0.413856 -0.199363
v -1.090788 -0.413856 -0.443174
v -0.846976 -0.413856 -0.443174
v -0.603165 -0.413856 -0.443174
v -0.359354 -0.413856 -0.443174
v -0.115542 -0.413856 -0.443174
v 0.128269 -0.413856 -0.443174
v 0.372080 -0.413856 -0.443174
v 0.615892 -0.413856 -0.443174
v 0.859703 -0.413856 -0.443174
v 1.103514 -0.413856 -0.443174
v -1.090788 -0.413856 -0.686985
v -0.846976 -0.413856 -0.686985
v -0.603165 -0.413856 -0.686985
v -0.359354 -0.413856 -0.686985
v -0.115542 -0.413856 -0.686985
v 0.128269 -0.413856 -0.686985
v 0.372080 -0.413856 -0.686985
v 0.615892 -0.413856 -0.686985
v 0.859703 -0.413856 -0.686985
v 1.103514 -0.413856 -0.686985
v -1.090788 -0.413856 -0.930797
v -0.846976 -0.413856 -0.930797
v -0.603165 -0.413856 -0.930797
v -0.359354 -0.413856 -0.930797
v -0.115542 -0.413856 -0.930797
v 0.128269 -0.413856 -0.930797
v 0.372080 -0.413856 -0.930797
v 0.615892 -0.413856 -0.930797
v 0.859703 -0.413856 -0.930797
v 1.103514 -0.413856 -0.930797
v -1.090788 -0.413856 -1.174608
v -0.846976 -0.413856 -1.174608
v -0.603165 -0.413856 -1.174608
v -0.359354 -0.413856 -1.174608
v -0.115542 -0.413856 -1.174608
v 0.128269 -0.413856 -1.174608
v 0.372080 -0.413856 -1.174608
v 0.615892 -0.413856 -1.174608
v 0.859703 -0.413856 -1.174608
v 1.103514 -0.413856 -1.174608
vn 0.0000 1.0000 0.0000
usemtl None
s off
f 30//8 31//8 41//8 40//8
f 31//8 32//8 42//8 41//8
f 32//8 33//8 43//8 42//8
f 33//8 34//8 44//8 43//8
f 34//8 35//8 45//8 44//8
f 35//8 36//8 46//8 45//8
f 36//8 37//8 47//8 46//8
f 37//8 38//8 48//8 47//8
f 38//8 39//8 49//8 48//8
f 40//8 41//8 51//8 50//8
f 41//8 42//8 52//8 51//8
f 42//8 43//8 53//8 52//8
f 43//8 44//8 54//8 53//8
f 44//8 45//8 55//8 54//8
f 45//8 46//8 56//8 55//8
f 46//8 47//8 57//8 56//8
f 47//8 48//8 58//8 57//8
f 48//8 49//8 59//8 58//8
f 50//8 51//8 61//8 60//8
f 51//8 52//8 62//8 61//8
f 52//8 53//8 63//8 62//8
f 53//8 54//8 64//8 63//8
f 54//8 55//8 65//8 64//8
f 55//8 56//8 66//8 65//8
f 56//8 57//8 67//8 66//8
f 57//8 58//8 68//8 67//8
f 58//8 59//8 69//8 68//8
f 60//8 61//8 71//8 70//8
f 61//8 62//8 72//8 71//8
f 62//8 63//8 73//8 72//8
f 63//8 64//8 74//8 73//8
f 64//8 65//8 75//8 74//8
f 65//8 66//8 76//8 75//8
f 66//8 67//8 77//8 76//8
f 67//8 68//8 78//8 77//8
f 68//8 69//8 79//8 78//8
f 70//8 71//8 81//8 80//8
f 71//8 72//8 82//8 81//8
f 72//8 73//8 83//8 82//8
f 73//8 74//8 84//8 83//8
f 74//8 75//8 85//8 84//8
f 75//8 76//8 86//8 85//8
f 76//8 77//8 87//8 86//8
f 77//8 78//8 88//8 87//8
f 78//8 79//8 89//8 88//8
f 80//8 81//8 91//8 90//8
f 81//8 82//8 92//8 91//8
f 82//8 83//8 93//8 92//8
f 83//8 84//8 94//8 93//8
f 84//8 85//8 95//8 94//8
f 85//8 86//8 96//8 95//8
f 86//8 87//8 97//8 96//8
f 87//8 88//8 98//8 97//8
f 88//8 89//8 99//8 98//8
f 90//8 91//8 101//8 100//8
f 91//8 92//8 102//8 101//8
f 92//8 93//8 103//8 102//8
f 93//8 94//8 104//8 103//8
f 94//8 95//8 105//8 104//8
f 95//8 96//8 106//8 105//8
f 96//8 97//8 107//8 106//8
f 97//8 98//8 108//8 107//8
f 98//8 99//8 109//8 108//8
f 100//8 101//8 111//8 110//8
f 101//8 102//8 112//8 111//8
f 102//8 103//8 113//8 112//8
f 103//8 104//8 114//8 113//8
f 104//8 105//8 115//8 114//8
f 105//8 106//8 116//8 115//8
f 106//8 107//8 117//8 116//8
f 107//8 108//8 118//8 117//8
f 108//8 109//8 119//8 118//8
f 110//8 111//8 121//8 120//8
f 111//8 112//8 122//8 121//8
f 112//8 113//8 123//8 122//8
f 113//8 114//8 124//8 123//8
f 114//8 115//8 125//8 124//8
f 115//8 116//8 126//8 125//8
f 116//8 117//8 127//8 126//8
f 117//8 118//8 128//8 127//8
f 118//8 119//8 129//8 128//8
