# Blender v2.79 (sub 0) OBJ File: ''
# www.blender.org
mtllib xwing.mtl
o Cube_Cube.003
v -0.936515 -0.005156 -0.233486
v -0.936515 -0.024611 -0.233486
v -0.913773 -0.005354 -0.230173
v -0.913773 -0.024611 -0.230173
v -0.953979 -0.001629 -0.113610
v -0.953979 -0.024611 -0.113610
v -0.931237 -0.001629 -0.110296
v -0.931237 -0.024611 -0.110296
v -0.916398 -0.001629 -0.212155
v -0.916398 -0.024611 -0.212155
v -0.939140 -0.001629 -0.215468
v -0.939140 -0.024611 -0.215468
v -0.931337 -0.005156 -0.232731
v -0.931337 -0.024611 -0.232731
v -0.948801 0.005635 -0.112855
v -0.948801 -0.024611 -0.112855
v -0.933962 -0.024611 -0.214713
v -0.933962 -0.003498 -0.214713
v -0.919915 -0.024611 -0.231067
v -0.937379 0.005635 -0.111191
v -0.919915 -0.005354 -0.231067
v -0.937379 -0.024611 -0.111191
v -0.922540 -0.024611 -0.213049
v -0.922540 -0.003498 -0.213049
v -0.914561 -0.005354 -0.224767
v -0.937303 -0.024611 -0.228080
v -0.914561 -0.024611 -0.224767
v -0.937303 -0.005156 -0.228080
v -0.932125 -0.005156 -0.227326
v -0.932125 -0.024611 -0.227326
v -0.920702 -0.024611 -0.225662
v -0.920702 -0.005354 -0.225662
v -0.936515 -0.005422 -0.233486
v -0.913773 -0.005422 -0.230173
v -0.930493 -0.005422 -0.109695
v -0.953240 -0.005422 -0.113502
v -0.939140 -0.005422 -0.215468
v -0.916398 -0.005422 -0.212155
v -0.939140 -0.009630 -0.215468
v -0.929688 -0.005422 -0.244054
v -0.953240 -0.009630 -0.113502
v -0.918265 -0.005422 -0.242390
v -0.914561 -0.005422 -0.224767
v -0.937303 -0.005422 -0.228080
v -0.936515 -0.020347 -0.233486
v -0.913773 -0.020347 -0.230173
v -0.931237 -0.020347 -0.110296
v -0.953240 -0.020347 -0.113502
v -0.939140 -0.020347 -0.215468
v -0.916398 -0.020347 -0.212155
v -0.930493 -0.009630 -0.109695
v -0.929688 -0.020347 -0.244054
v -0.913773 -0.009630 -0.230173
v -0.918265 -0.020347 -0.242390
v -0.914561 -0.020347 -0.224767
v -0.937303 -0.020347 -0.228080
v -0.925939 -0.024611 -0.146662
v -0.948681 -0.001629 -0.149975
v -0.925939 -0.001629 -0.146662
v -0.948681 -0.024611 -0.149975
v -0.943503 -0.024611 -0.149221
v -0.943503 0.014763 -0.149221
v -0.932081 0.014763 -0.147557
v -0.932081 -0.024611 -0.147557
v -0.948681 -0.005422 -0.149975
v -0.925939 -0.005422 -0.146662
v -0.948681 -0.020347 -0.149975
v -0.925939 -0.020347 -0.146662
v -0.928944 -0.024611 -0.126038
v -0.951686 -0.001629 -0.129351
v -0.946508 -0.024611 -0.128597
v -0.935085 -0.024611 -0.126933
v -0.928944 -0.005422 -0.126038
v -0.928944 -0.020347 -0.126038
v -0.928944 -0.001629 -0.126038
v -0.951686 -0.024611 -0.129351
v -0.946508 0.014763 -0.128597
v -0.935085 0.014763 -0.126933
v -0.951686 -0.005422 -0.129351
v -0.951686 -0.020347 -0.129351
v -0.933344 -0.005422 -0.090125
v -0.934732 -0.001629 -0.086302
v -0.940874 0.005635 -0.087197
v -0.952297 -0.024611 -0.088861
v -0.957475 -0.024611 -0.089616
v -0.956735 -0.005422 -0.089508
v -0.957475 -0.001629 -0.089616
v -0.952297 0.005635 -0.088861
v -0.940874 -0.024611 -0.087197
v -0.952297 -0.005422 -0.088861
v -0.934732 -0.024611 -0.086302
v -0.940874 -0.005422 -0.087197
v -0.934732 -0.020347 -0.086302
v -0.956735 -0.020347 -0.089508
v -0.952297 -0.020347 -0.088861
v -0.940874 -0.020347 -0.087197
v -0.916398 -0.009630 -0.212155
v -0.929688 -0.009630 -0.244054
v -0.918265 -0.009630 -0.242390
v -0.914561 -0.009630 -0.224767
v -0.937303 -0.009630 -0.228080
v -0.936515 -0.009630 -0.233486
v -0.925939 -0.009630 -0.146662
v -0.948681 -0.009630 -0.149975
v -0.951686 -0.009630 -0.129351
v -0.928944 -0.009630 -0.126038
v -0.933344 -0.009630 -0.090125
v -0.956735 -0.009630 -0.089508
v -0.952297 -0.009630 -0.088861
v -0.940874 -0.009630 -0.087197
v -0.936515 -0.016526 -0.233486
v -0.913773 -0.016526 -0.230173
v -0.931237 -0.016526 -0.110296
v -0.953240 -0.016526 -0.113502
v -0.939140 -0.016526 -0.215468
v -0.916398 -0.016526 -0.212155
v -0.929688 -0.016526 -0.244054
v -0.918265 -0.016526 -0.242390
v -0.914561 -0.016526 -0.224767
v -0.937303 -0.016526 -0.228080
v -0.925939 -0.016526 -0.146662
v -0.948681 -0.016526 -0.149975
v -0.951686 -0.016526 -0.129351
v -0.928944 -0.016526 -0.126038
v -0.934732 -0.016526 -0.086302
v -0.956735 -0.016526 -0.089508
v -0.952297 -0.016526 -0.088861
v -0.940874 -0.016526 -0.087197
v -1.018402 -0.000910 -0.123208
v -1.018402 0.003298 -0.123208
v -1.023213 -0.026254 -0.100245
v -1.019718 -0.026254 -0.124239
v -1.021897 0.003298 -0.099214
v -1.021897 -0.000910 -0.099214
v -1.019718 -0.022434 -0.124239
v -1.023213 -0.022434 -0.100245
v -0.866907 0.003893 -0.100432
v -0.869758 0.003893 -0.080862
v -0.866907 -0.000315 -0.100432
v -0.869758 -0.000315 -0.080862
v -0.872363 -0.025920 -0.077216
v -0.868868 -0.025920 -0.101210
v -0.868868 -0.022099 -0.101210
v -0.872363 -0.022099 -0.077216
v -0.921626 -0.001629 -0.176270
v -0.944368 -0.024611 -0.179583
v -0.939190 0.005483 -0.178829
v -0.927768 0.005483 -0.177165
v -0.944368 -0.005422 -0.179583
v -0.944368 -0.020347 -0.179583
v -0.921626 -0.024611 -0.176270
v -0.944368 -0.001629 -0.179583
v -0.939190 -0.024611 -0.178829
v -0.927768 -0.024611 -0.177165
v -0.921626 -0.005422 -0.176270
v -0.921626 -0.020347 -0.176270
v -0.921626 -0.009630 -0.176270
v -0.944368 -0.009630 -0.179583
v -0.921626 -0.016526 -0.176270
v -0.944368 -0.016526 -0.179583
v -1.015152 -0.001813 -0.098209
v -1.015152 0.002395 -0.098209
v -1.011657 0.002395 -0.122203
v -1.011657 -0.001813 -0.122203
v -1.014799 -0.000910 -0.147396
v -1.014799 0.003298 -0.147396
v -1.008054 0.002395 -0.146391
v -1.008054 -0.001813 -0.146391
v -1.016031 -0.025926 -0.123644
v -1.019527 -0.025926 -0.099650
v -1.019527 -0.022106 -0.099650
v -1.016031 -0.022106 -0.123644
v -1.017055 -0.026254 -0.140728
v -1.017055 -0.022434 -0.140728
v -1.013368 -0.025926 -0.140133
v -1.013368 -0.022106 -0.140133
v -0.872916 -0.001077 -0.081322
v -0.870065 -0.001077 -0.100892
v -0.870065 0.003131 -0.100892
v -0.872916 0.003131 -0.081322
v -0.863232 -0.000315 -0.121157
v -0.863232 0.003893 -0.121157
v -0.867032 -0.001077 -0.121711
v -0.867032 0.003131 -0.121711
v -0.872368 -0.021787 -0.101720
v -0.875864 -0.021787 -0.077726
v -0.875864 -0.025607 -0.077726
v -0.872368 -0.025607 -0.101720
v -0.865313 -0.025920 -0.125610
v -0.865313 -0.022099 -0.125610
v -0.868814 -0.021787 -0.126120
v -0.868814 -0.025607 -0.126120
v -0.958485 -0.005422 -0.077499
v -0.959224 -0.001629 -0.077606
v -0.954046 0.005635 -0.076852
v -0.954046 -0.005422 -0.076852
v -0.933776 -0.007121 -0.079960
v -0.935164 -0.003327 -0.076138
v -0.941306 0.003936 -0.077032
v -0.941306 -0.007121 -0.077032
v -0.935902 -0.024611 -0.078273
v -0.942044 -0.024611 -0.079168
v -0.935902 -0.020347 -0.078273
v -0.942044 -0.020347 -0.079168
v -0.953535 -0.024271 -0.080364
v -0.958713 -0.024271 -0.081118
v -0.957973 -0.020007 -0.081010
v -0.953535 -0.020007 -0.080364
v -1.017765 0.008157 -0.123115
v -1.021261 0.008157 -0.099121
v -1.014516 0.007254 -0.098117
v -1.011020 0.007254 -0.122111
v -1.020050 -0.018612 -0.124287
v -1.023545 -0.018612 -0.100293
v -1.019858 -0.018284 -0.099698
v -1.016363 -0.018284 -0.123692
v -0.867581 0.006744 -0.100530
v -0.870432 0.006744 -0.080960
v -0.870738 0.005983 -0.100990
v -0.873589 0.005983 -0.081420
v -0.868584 -0.018859 -0.101169
v -0.872080 -0.018859 -0.077175
v -0.872085 -0.018546 -0.101679
v -0.875580 -0.018546 -0.077685
vn 0.5529 -0.7023 -0.4484
vn 0.9896 0.0000 0.1442
vn 0.9671 0.2119 0.1409
vn -0.9896 0.0000 -0.1442
vn -0.9155 0.4019 -0.0168
vn 0.0000 -1.0000 0.0000
vn 0.1989 0.9653 -0.1694
vn 0.0281 0.9906 -0.1339
vn -0.0718 0.8673 0.4925
vn 0.0000 1.0000 0.0000
vn -0.4691 -0.6712 -0.5739
vn -0.9709 -0.1933 -0.1414
vn 0.8495 0.4606 0.2573
vn -0.1135 0.9665 -0.2304
vn 0.0503 -0.9370 -0.3456
vn 0.0170 0.9999 0.0025
vn 0.0106 0.9999 -0.0132
vn -0.9747 0.1727 -0.1420
vn -0.0435 0.9976 -0.0533
vn -0.1473 0.0000 0.9891
vn -0.8029 0.5845 -0.1170
vn 0.9873 0.1061 0.1183
vn 0.0126 0.9999 -0.0102
vn 0.1442 0.0000 -0.9896
vn -0.8400 0.0000 -0.5427
vn 0.9386 0.0000 -0.3451
vn 0.8831 0.4658 0.0557
vn 0.0427 0.9551 -0.2931
vn -0.8931 0.4060 -0.1937
vn -0.9889 0.0873 -0.1204
vn -0.9879 -0.0980 -0.1203
vn -0.9952 0.0000 -0.0976
vn 0.9254 0.3541 0.1348
vn -0.9427 0.3041 -0.1373
vn 0.0057 0.9992 -0.0391
vn -0.1442 0.0000 0.9896
vn 0.7475 0.6493 0.1402
vn 0.7523 0.6496 0.1096
vn -0.9857 0.0881 -0.1436
vn 0.2297 -0.9727 0.0335
vn 0.3624 0.0000 0.9320
vn 0.9955 0.0000 0.0944
vn 0.0865 -0.9962 0.0126
vn 0.9826 -0.1184 0.1431
vn 0.1424 0.2510 0.9574
vn 0.9912 -0.0586 0.1187
vn -0.1595 0.0000 0.9872
vn 0.9810 -0.1312 0.1429
vn -0.9858 -0.0874 -0.1436
vn -0.9872 0.0000 -0.1594
vn 0.9891 0.0000 0.1473
vn -0.1298 -0.9914 -0.0189
vn -0.9625 -0.2321 -0.1402
vn -0.0872 -0.9961 -0.0127
vn -0.4246 0.8887 -0.1731
vn 0.0347 0.9707 -0.2379
vn 0.3988 0.9153 -0.0564
vn 0.1473 0.0000 -0.9891
vn 0.1298 0.9914 0.0189
vn -0.1298 -0.9914 -0.0193
vn -0.9891 0.0000 -0.1473
vn 0.1298 0.9914 0.0193
vn 0.1594 0.0000 -0.9872
vn -0.0865 0.9962 -0.0126
vn -0.1594 0.0000 0.9872
vn 0.0863 -0.9962 0.0139
vn -0.0863 0.9962 -0.0139
vn 0.9872 0.0000 0.1595
vn -0.1373 0.9903 -0.0200
vn 0.1373 -0.9903 0.0200
vn -0.2090 0.9773 -0.0338
vn 0.9846 0.0000 0.1746
vn 0.2090 -0.9773 0.0338
vn 0.0872 0.9961 0.0127
vn 0.0122 -0.2482 0.9686
vn 0.9603 0.2656 0.0852
vn -0.9991 0.0000 -0.0424
vn -0.0650 -0.9838 -0.1671
vn -0.0057 -0.9992 0.0391
vn -0.9737 0.1727 -0.1487
vn -0.9810 0.1312 -0.1429
vn 0.1473 -0.0004 -0.9891
vn -0.1473 0.0004 0.9891
vn -0.1593 -0.0013 0.9872
vn 0.9858 0.0874 0.1436
vn 0.1593 0.0014 -0.9872
vn -0.2297 0.9727 -0.0335
vn 0.9625 0.2322 0.1402
vn 0.9857 -0.0881 0.1436
usemtl None
s off
f 54//1 46//1 4//1 19//1
f 74//2 47//2 8//2 69//2
f 7//3 82//3 81//3 35//3
f 56//4 45//4 2//4 26//4
f 77//5 70//5 5//5 15//5
f 30//6 26//6 2//6 14//6
f 153//6 146//6 12//6 17//6
f 29//7 28//7 11//7 18//7
f 150//4 49//4 12//4 146//4
f 55//2 50//2 10//2 27//2
f 32//8 29//8 18//8 24//8
f 154//6 153//6 17//6 23//6
f 31//6 30//6 14//6 19//6
f 78//9 77//9 15//9 20//9
f 15//10 88//10 83//10 20//10
f 45//11 52//11 14//11 2//11
f 36//12 86//12 87//12 5//12
f 75//13 78//13 20//13 7//13
f 27//6 31//6 19//6 4//6
f 151//6 154//6 23//6 10//6
f 25//14 32//14 24//14 9//14
f 52//15 54//15 19//15 14//15
f 3//10 21//10 32//10 25//10
f 10//6 23//6 31//6 27//6
f 23//6 17//6 30//6 31//6
f 21//16 13//16 29//16 32//16
f 46//2 55//2 27//2 4//2
f 13//10 1//10 28//10 29//10
f 17//6 12//6 26//6 30//6
f 49//4 56//4 26//4 12//4
f 11//4 28//4 44//4 37//4
f 3//2 25//2 43//2 34//2
f 13//17 21//17 42//17 40//17
f 6//18 85//18 94//18 48//18
f 1//19 13//19 40//19 33//19
f 162//20 133//20 134//20 161//20
f 25//2 9//2 38//2 43//2
f 152//4 11//4 37//4 149//4
f 28//4 1//4 33//4 44//4
f 5//21 87//21 88//21 15//21
f 75//22 7//22 35//22 73//22
f 21//23 3//23 34//23 42//23
f 115//4 120//4 56//4 49//4
f 112//2 119//2 55//2 46//2
f 117//24 118//24 54//24 52//24
f 16//6 84//6 85//6 6//6
f 111//25 117//25 52//25 45//25
f 8//6 91//6 89//6 22//6
f 119//2 116//2 50//2 55//2
f 160//4 115//4 49//4 150//4
f 120//4 111//4 45//4 56//4
f 47//2 93//2 91//2 8//2
f 124//2 113//2 47//2 74//2
f 118//26 112//26 46//26 54//26
f 159//2 121//2 68//2 156//2
f 123//4 122//4 67//4 80//4
f 145//2 59//2 66//2 155//2
f 70//4 58//4 65//4 79//4
f 69//6 72//6 64//6 57//6
f 145//27 148//27 63//27 59//27
f 148//28 147//28 62//28 63//28
f 72//6 71//6 61//6 64//6
f 80//4 67//4 60//4 76//4
f 71//6 76//6 60//6 61//6
f 147//29 152//29 58//29 62//29
f 156//2 68//2 57//2 151//2
f 16//6 6//6 76//6 71//6
f 48//30 80//30 76//30 6//30
f 22//6 16//6 71//6 72//6
f 8//6 22//6 72//6 69//6
f 5//31 70//31 79//31 36//31
f 114//32 123//32 80//32 48//32
f 121//2 124//2 74//2 68//2
f 59//2 75//2 73//2 66//2
f 59//33 63//33 78//33 75//33
f 63//10 62//10 77//10 78//10
f 62//34 58//34 70//34 77//34
f 68//2 74//2 69//2 57//2
f 94//35 207//35 208//35 95//35
f 96//36 95//36 84//36 89//36
f 96//10 204//10 203//10 93//10
f 83//37 199//37 198//37 82//37
f 83//36 88//36 90//36 92//36
f 88//2 195//2 196//2 90//2
f 125//36 128//36 96//36 93//36
f 128//36 127//36 95//36 96//36
f 127//36 126//36 94//36 95//36
f 22//6 89//6 84//6 16//6
f 20//38 83//38 82//38 7//38
f 186//39 224//39 223//39 185//39
f 178//40 139//40 140//40 177//40
f 90//36 86//36 108//36 109//36
f 92//36 90//36 109//36 110//36
f 81//41 92//41 110//41 107//41
f 66//2 73//2 106//2 103//2
f 36//32 79//32 105//32 41//32
f 79//4 65//4 104//4 105//4
f 155//2 66//2 103//2 157//2
f 42//26 34//26 53//26 99//26
f 73//42 35//42 51//42 106//42
f 44//4 33//4 102//4 101//4
f 149//4 37//4 39//4 158//4
f 43//2 38//2 97//2 100//2
f 33//25 40//25 98//25 102//25
f 40//24 42//24 99//24 98//24
f 34//2 43//2 100//2 53//2
f 37//4 44//4 101//4 39//4
f 114//4 126//4 108//4 41//4
f 170//43 131//43 132//43 169//43
f 51//44 107//44 125//44 113//44
f 109//36 108//36 126//36 127//36
f 110//36 109//36 127//36 128//36
f 107//45 110//45 128//45 125//45
f 103//2 106//2 124//2 121//2
f 41//32 105//32 123//32 114//32
f 105//4 104//4 122//4 123//4
f 157//2 103//2 121//2 159//2
f 99//26 53//26 112//26 118//26
f 106//46 51//46 113//46 124//46
f 101//4 102//4 111//4 120//4
f 158//4 39//4 115//4 160//4
f 100//2 97//2 116//2 119//2
f 102//25 98//25 117//25 111//25
f 98//24 99//24 118//24 117//24
f 53//2 100//2 119//2 112//2
f 39//4 101//4 120//4 115//4
f 129//4 134//4 133//4 130//4
f 132//4 131//4 136//4 135//4
f 171//47 136//47 131//47 170//47
f 163//48 212//48 211//48 162//48
f 136//49 214//49 213//49 135//49
f 135//50 174//50 173//50 132//50
f 164//51 168//51 167//51 163//51
f 161//52 134//52 129//52 164//52
f 137//2 138//2 140//2 139//2
f 179//4 184//4 183//4 178//4
f 180//53 220//53 219//53 179//53
f 177//36 140//36 138//36 180//36
f 143//2 144//2 141//2 142//2
f 188//54 142//54 141//54 187//54
f 185//4 191//4 192//4 188//4
f 187//36 141//36 144//36 186//36
f 104//4 158//4 160//4 122//4
f 97//2 157//2 159//2 116//2
f 65//4 149//4 158//4 104//4
f 38//2 155//2 157//2 97//2
f 50//2 156//2 151//2 10//2
f 18//55 11//55 152//55 147//55
f 24//56 18//56 147//56 148//56
f 9//57 24//57 148//57 145//57
f 9//2 145//2 155//2 38//2
f 116//2 159//2 156//2 50//2
f 122//4 160//4 150//4 67//4
f 58//4 152//4 149//4 65//4
f 57//6 64//6 154//6 151//6
f 64//6 61//6 153//6 154//6
f 67//4 150//4 146//4 60//4
f 61//6 60//6 146//6 153//6
f 108//52 161//52 164//52 41//52
f 41//58 164//58 163//58 36//58
f 36//59 163//59 162//59 86//59
f 86//20 162//20 161//20 108//20
f 168//58 165//58 166//58 167//58
f 129//60 165//60 168//60 164//60
f 130//61 166//61 165//61 129//61
f 163//62 167//62 166//62 130//62
f 48//63 169//63 172//63 114//63
f 114//64 172//64 171//64 126//64
f 126//65 171//65 170//65 94//65
f 94//43 170//43 169//43 48//43
f 175//63 173//63 174//63 176//63
f 132//66 173//66 175//66 169//66
f 172//67 176//67 174//67 135//67
f 169//68 175//68 176//68 172//68
f 107//36 177//36 180//36 81//36
f 81//69 180//69 179//69 35//69
f 35//24 179//24 178//24 51//24
f 51//70 178//70 177//70 107//70
f 184//24 182//24 181//24 183//24
f 137//71 182//71 184//71 179//71
f 139//72 181//72 182//72 137//72
f 178//73 183//73 181//73 139//73
f 93//36 187//36 186//36 125//36
f 113//24 185//24 188//24 47//24
f 47//54 188//54 187//54 93//54
f 125//74 186//74 185//74 113//74
f 191//24 190//24 189//24 192//24
f 188//54 192//54 189//54 142//54
f 142//2 189//2 190//2 143//2
f 143//74 190//74 191//74 185//74
f 195//36 194//36 193//36 196//36
f 87//21 194//21 195//21 88//21
f 90//6 196//6 193//6 86//6
f 86//12 193//12 194//12 87//12
f 198//75 199//75 200//75 197//75
f 82//76 198//76 197//76 81//76
f 92//77 200//77 199//77 83//77
f 81//78 197//78 200//78 92//78
f 203//36 204//36 202//36 201//36
f 91//6 201//6 202//6 89//6
f 93//2 203//2 201//2 91//2
f 89//4 202//4 204//4 96//4
f 208//36 207//36 206//36 205//36
f 95//2 208//2 205//2 84//2
f 84//79 205//79 206//79 85//79
f 85//80 206//80 207//80 94//80
f 212//59 209//59 210//59 211//59
f 133//81 210//81 209//81 130//81
f 130//82 209//82 212//82 163//82
f 162//83 211//83 210//83 133//83
f 216//64 213//64 214//64 215//64
f 171//84 215//84 214//84 136//84
f 172//85 216//85 215//85 171//85
f 135//86 213//86 216//86 172//86
f 220//87 218//87 217//87 219//87
f 138//36 218//36 220//36 180//36
f 137//88 217//88 218//88 138//88
f 179//24 219//24 217//24 137//24
f 224//74 222//74 221//74 223//74
f 143//89 221//89 222//89 144//89
f 144//36 222//36 224//36 186//36
f 185//24 223//24 221//24 143//24
